<svg width="1408" height="768" viewBox="0 0 1408 768" xmlns="http://www.w3.org/2000/svg" style="display:block" preserveAspectRatio="xMidYMid meet"><svg x="515" y="531" width="331" height="138" xmlns="http://www.w3.org/2000/svg" style="display:block" preserveAspectRatio="none"><svg version="1.1" xmlns="http://www.w3.org/2000/svg" style="display: block;" width="331" height="138" viewBox="91.43 36.87 1871.49 780.26" preserveAspectRatio="none"><g id="svg-group-8aecf984-a050-4790-8dfc-5641bb832bcb">
<defs>
	<linearGradient id="Gradient1" gradientUnits="userSpaceOnUse" x1="1228.79" y1="292.672" x2="1228.08" y2="309.524">
		<stop class="stop0" offset="0" stop-opacity="0.988235" stop-color="rgb(0,48,81)"/>
		<stop class="stop1" offset="1" stop-opacity="1" stop-color="rgb(11,78,112)"/>
	</linearGradient>
	<linearGradient id="Gradient2" gradientUnits="userSpaceOnUse" x1="953.857" y1="780.821" x2="955.241" y2="790.891">
		<stop class="stop0" offset="0" stop-opacity="1" stop-color="rgb(0,1,2)"/>
		<stop class="stop1" offset="1" stop-opacity="1" stop-color="rgb(0,4,29)"/>
	</linearGradient>
	<linearGradient id="Gradient3" gradientUnits="userSpaceOnUse" x1="1069.6" y1="806.706" x2="1073.21" y2="794.928">
		<stop class="stop0" offset="0" stop-opacity="1" stop-color="rgb(0,0,0)"/>
		<stop class="stop1" offset="1" stop-opacity="1" stop-color="rgb(0,6,30)"/>
	</linearGradient>
	<linearGradient id="Gradient4" gradientUnits="userSpaceOnUse" x1="1398.04" y1="288.811" x2="1391.86" y2="269.875">
		<stop class="stop0" offset="0" stop-opacity="1" stop-color="rgb(2,70,101)"/>
		<stop class="stop1" offset="1" stop-opacity="1" stop-color="rgb(0,46,76)"/>
	</linearGradient>
	<linearGradient id="Gradient5" gradientUnits="userSpaceOnUse" x1="652.664" y1="803.456" x2="1461.81" y2="-122.226">
		<stop class="stop0" offset="0" stop-opacity="1" stop-color="rgb(9,62,125)"/>
		<stop class="stop1" offset="1" stop-opacity="1" stop-color="rgb(14,112,138)"/>
	</linearGradient>
</defs>
<path transform="translate(0,0)" fill="url(#Gradient5)" d="M 510.921 41.3037 C 521.423 47.0013 539.745 64.1973 549.335 72.6763 C 564.242 83.6171 579.175 94.1659 593.913 105.364 C 609.305 115.989 627.875 127.354 642.226 137.771 C 649.568 142.068 682.825 160.378 687.302 164.129 C 697.937 169.818 709.695 175.825 720.018 181.881 C 795.858 222.214 876.527 252.722 960.077 272.669 C 977.583 276.905 996.353 280.169 1014.04 284.101 C 1022.78 286.044 1033.1 286.569 1041.86 288.931 C 1074.95 293.478 1106.38 298.354 1139.85 298.777 C 1142.91 298.816 1148.04 299.018 1150.99 299.453 C 1140.12 306.921 1135.58 305.21 1122.72 305.055 C 1127.04 306.375 1141.67 307.285 1146.85 307.685 C 1168.03 309.318 1189.48 310.212 1210.72 309.524 C 1223.41 308.832 1236.15 306.62 1248.81 305.768 C 1261.67 304.903 1274.46 304.346 1287.31 303.131 C 1297.49 302.167 1306.89 300.413 1316.93 298.624 C 1314.55 297.93 1313.27 295.545 1311.67 293.415 C 1362.58 286.036 1427.16 276.005 1475.75 258.827 C 1493.25 252.147 1514.85 246.067 1533.27 239.524 C 1553.51 232.339 1581.98 220.025 1601.81 214.916 C 1628.67 208.993 1657.64 221.885 1663.77 250.278 C 1663.98 251.274 1664.17 252.275 1664.33 253.28 C 1666.55 261.289 1666.62 269.74 1664.55 277.786 C 1662.09 290.859 1656.02 302.026 1644.84 309.626 C 1643.55 310.505 1642.23 311.338 1640.88 312.122 C 1628.11 319.663 1612.52 325.048 1598.81 330.502 C 1568.02 342.757 1537.58 353.334 1505.47 361.591 C 1496.52 363.892 1487.42 367.347 1478.36 369.183 C 1468.29 373.099 1440.55 379.115 1429.79 380.598 L 1428.8 380.864 C 1420.64 384.497 1401.91 386.958 1391.27 389.734 C 1368.11 391.13 1348.44 396.947 1325.56 396.948 L 1318.57 397.674 C 1299.45 401.047 1286.36 402.525 1266.73 402.076 C 1245.09 403.089 1221.77 403.27 1201.08 410.078 C 1199.36 410.645 1196.96 412.113 1195.4 412.52 C 1157.68 442.093 1175.49 493.969 1223.78 498.25 C 1254.73 500.994 1278 496.396 1307.5 495.897 C 1332.74 493.304 1354.43 491.405 1379.83 487.964 C 1395.57 483.895 1418.37 480.743 1435.2 477.029 C 1494.92 463.85 1544.04 451.68 1601.36 430.932 C 1619.28 424.064 1649.23 410.409 1665.74 405.334 C 1682.46 395.84 1705.15 387.211 1722.66 378.357 C 1745.92 366.598 1768.91 354.255 1791.6 341.443 C 1811.14 330.392 1830.34 318.764 1849.19 306.574 C 1860.69 299.103 1876.97 286.309 1889.09 281.473 C 1918.2 269.862 1945.7 282.93 1957.74 309.932 C 1961.29 325.423 1962.92 339.295 1954.79 354.227 C 1947.05 371.814 1932.31 381.745 1916.35 391.995 C 1904.32 401.953 1889.39 409.488 1876.13 417.909 C 1762.82 489.887 1628.54 541.284 1498.65 574.379 C 1484.2 578.063 1436.03 589.435 1420.87 590.078 C 1416.66 590.948 1411.51 592.249 1407.35 592.758 C 1364.45 598.003 1318.41 606.055 1275.41 606.727 C 1242.59 607.903 1214.32 607.536 1181.71 606.841 C 1168.77 606.56 1153.46 606.537 1140.71 605.603 C 1127.86 604.661 1114.45 602.553 1101.21 601.476 C 1016.24 589.405 922.584 565.021 840.157 540.863 C 820.687 535.157 782.555 524.003 764.854 516.365 L 758.804 514.405 C 744.36 508.73 719.485 500.278 704.644 495.561 C 714.584 502.907 744.124 513.838 756.872 518.969 C 760.579 520.49 767.399 523.529 770.983 524.674 C 851.874 554.479 928.628 579.583 1013.75 595.549 C 1022.65 597.219 1050.09 603.321 1058.22 603.089 L 1058.64 604.77 C 1054.26 609.323 1031.7 606.537 1015.78 632.12 C 1011.82 643.566 1009.59 653.843 1013.74 665.816 C 1033.58 712.208 1100.11 696.17 1141.33 703.863 C 1158.86 704.394 1176.39 704.757 1193.92 704.952 C 1202.14 705 1214.05 704.445 1221.83 704.857 C 1228.19 703.873 1246.21 704.121 1254.29 703.581 C 1282.36 701.704 1310.63 700.929 1338.59 697.512 C 1345.98 696.48 1353.39 695.678 1360.83 695.107 L 1375.48 693.491 C 1389.48 690.575 1406.19 687.397 1420.43 685.942 C 1429.36 683.634 1443.21 682.861 1453.03 680.913 C 1471.42 677.264 1489.61 673.366 1508.1 670.253 C 1523.63 664.752 1544.98 661.171 1561.53 656.568 C 1597.93 646.439 1626.95 633.451 1665.64 635.514 C 1684.11 639.335 1693.15 651.124 1699.72 667.953 C 1704.08 680.245 1704.11 696.506 1698.48 708.515 C 1698.22 709.072 1697.95 709.619 1697.65 710.154 L 1694.89 715.142 C 1684.86 730.633 1673.1 737.244 1655.34 742.503 C 1650.11 743.824 1645.31 745.65 1640.21 747.359 C 1599.84 760.886 1559.83 770.274 1518.23 778.453 C 1511.51 781.338 1444.1 793.33 1434.13 794.292 C 1428.06 795.181 1413.7 798.555 1409.58 798.602 L 1379.53 801.675 C 1371.93 803.151 1363.33 804.934 1355.65 805.103 C 1343.43 805.454 1323.37 805.903 1311.92 808.502 C 1293.56 812.701 1138.87 812.029 1121.65 807.998 C 1110.97 807.064 1099.72 806.524 1088.98 805.86 C 1078.88 806.116 1059.33 804.986 1049.81 803.226 C 1037.5 800.711 1026.61 800.53 1014.46 798.904 C 1000.01 796.97 984.487 794.505 970.184 791.785 C 959.021 788.992 947.971 789.004 936.848 785.854 C 930.634 785.362 911.944 781.307 905.135 779.896 C 879.979 774.683 852.458 769.044 827.756 761.929 C 817.286 759.41 804.345 756.058 794.249 752.713 C 787.709 751.099 782.991 749.892 776.678 747.609 C 769.595 745.563 762.458 743.695 755.734 740.67 C 746.311 738.627 729.504 732.14 720.279 728.456 L 703.915 722.832 C 694.292 720.497 672.607 712.103 663.533 707.85 C 659.39 706.358 654.847 704.938 651.135 702.633 C 639.21 697.934 569.996 668.314 562.122 662.659 C 545.356 656.079 518.674 640.526 501.683 631.832 L 489.768 625.577 C 472.393 616.236 442.473 598.546 426.25 587.818 C 418.983 584.157 411.681 579.412 404.732 575.096 C 395.54 568.33 384.397 561.82 375.836 554.594 C 374.204 554.003 357.539 541.83 355.261 540.283 C 336.312 527.408 317.991 514.155 299.583 500.534 C 281.75 485.597 262.913 471.616 245.084 456.867 C 218.677 434.987 193.077 412.152 168.334 388.408 C 153.146 375.764 101.197 324.092 91.4257 308.984 C 99.7657 312.062 104.771 313.852 113.545 315.89 C 120.2 317.474 128.301 319.528 135.04 319.97 C 171.306 326.95 191.265 329.76 227.046 333.36 C 255.824 337.71 283.389 336.257 309.011 339.599 C 331.693 340.365 360.835 338.537 381.952 339.828 C 383.893 339.53 385.828 339.424 387.789 339.363 C 419.19 338.391 450.879 336.023 482.277 335.839 C 485.191 334.692 505.864 333.832 511.98 332.646 L 512.042 86.2167 C 511.205 72.6808 511.448 55.3617 510.921 41.3037 z M 1036.25 418.744 C 1027.9 404.339 1017.75 393.406 1001.1 389.853 C 985.062 386.431 958.083 382.024 943.8 391.908 C 907.571 416.977 922.586 465.118 962.565 475.131 C 964.281 475.558 966.004 475.954 967.734 476.317 C 981.424 478.645 1001.07 482.834 1014.15 477.782 C 1037.65 468.704 1044.19 440.318 1036.25 418.744 z"/>
<path transform="translate(0,0)" fill="rgb(6,75,102)" d="M 1665.74 405.334 C 1682.46 395.84 1705.15 387.211 1722.66 378.357 C 1745.92 366.598 1768.91 354.255 1791.6 341.443 C 1811.14 330.392 1830.34 318.764 1849.19 306.574 C 1860.69 299.103 1876.97 286.309 1889.09 281.473 C 1918.2 269.862 1945.7 282.93 1957.74 309.932 L 1953.68 308.653 C 1950.85 307.762 1941.51 296.422 1937.83 293.987 C 1927.43 287.113 1914.48 287.477 1902.38 287.054 C 1887.11 286.52 1868.96 301.621 1855.97 309.36 L 1766.79 363.514 C 1763.14 365.696 1748.58 376.076 1746.07 376.886 C 1727.28 382.961 1693.56 403.711 1675.52 405.087 L 1676.04 404.798 C 1672.42 405.098 1669.4 405.345 1665.74 405.334 z"/>
<path transform="translate(0,0)" fill="rgb(1,49,85)" d="M 720.018 181.881 C 795.858 222.214 876.527 252.722 960.077 272.669 C 977.583 276.905 996.353 280.169 1014.04 284.101 C 1022.78 286.044 1033.1 286.569 1041.86 288.931 C 1040.35 289.588 1036.52 291.012 1035.6 292.102 L 1037.05 292.092 C 1035.41 293.537 1036.03 293.415 1034.19 293.608 C 1010.65 290.905 987.812 287.313 964.472 282.811 C 953.687 280.731 943.005 272.303 936.353 270.728 C 922.225 267.384 908.468 266.402 893.77 261.645 C 872.884 254.884 851.304 247.875 830.648 240.452 C 822.424 237.497 807.974 229.731 799.907 226.334 C 785.041 220.074 723.74 194.501 714.077 185.695 L 716.001 184.987 L 714.83 184.86 C 715.415 183.772 718.592 182.574 720.018 181.881 z"/>
<path transform="translate(0,0)" fill="rgb(1,9,29)" d="M 764.854 516.365 L 762.501 513.291 C 763.013 513.055 763.621 512.774 764.326 512.449 C 787.087 518.787 825.828 531.753 846.946 537.747 C 924.608 559.785 1003.31 580.585 1083.09 593.296 C 1099.49 595.908 1116.63 597.551 1133.01 599.866 C 1141.6 601.08 1172.98 598.867 1177.9 602.216 L 1177.34 605.313 C 1179.24 606.398 1179.55 606.467 1181.71 606.841 C 1168.77 606.56 1153.46 606.537 1140.71 605.603 C 1127.86 604.661 1114.45 602.553 1101.21 601.476 C 1016.24 589.405 922.584 565.021 840.157 540.863 C 820.687 535.157 782.555 524.003 764.854 516.365 z"/>
<path transform="translate(0,0)" fill="rgb(1,9,29)" d="M 770.983 524.674 C 851.874 554.479 928.628 579.583 1013.75 595.549 C 1022.65 597.219 1050.09 603.321 1058.22 603.089 L 1058.64 604.77 C 1054.26 609.323 1031.7 606.537 1015.78 632.12 C 1011.73 618.473 1028.75 610.455 1039.52 607.495 C 1026.76 602.929 1009.32 599.976 995.942 597.185 C 975.653 592.821 955.393 588.322 935.164 583.688 C 896.649 574.546 858.958 561.052 821.439 548.491 C 812.826 545.607 775.682 532.181 769.35 527.698 L 769.187 526.086 L 770.983 524.674 z"/>
<path transform="translate(0,0)" fill="rgb(1,49,85)" d="M 1601.36 430.932 C 1597.3 436.652 1591.27 436.447 1585.21 438.363 C 1581.37 439.577 1576.83 444.209 1572.34 444.583 C 1561.33 446.821 1543.7 451.761 1533.47 455.867 L 1533.46 456.567 C 1550.27 455.111 1555.37 453.112 1570.82 446.656 C 1575.51 444.696 1576.13 446.781 1582.49 442.141 L 1584.69 442.186 C 1581.79 446.44 1546.12 456.83 1538.68 458.337 C 1526.99 460.706 1512.31 469.713 1501.03 470.541 C 1467.83 472.979 1420.44 492.077 1388.6 490.501 C 1399.04 488.127 1420.46 487.112 1430.85 482.435 L 1430.59 480.524 C 1425.95 479.492 1391.19 490.005 1379.83 487.964 C 1395.57 483.895 1418.37 480.743 1435.2 477.029 C 1494.92 463.85 1544.04 451.68 1601.36 430.932 z"/>
<path transform="translate(0,0)" fill="url(#Gradient4)" d="M 1311.67 293.415 C 1362.58 286.036 1427.16 276.005 1475.75 258.827 C 1476.44 260.797 1477.57 263.69 1477.95 265.659 C 1456.58 272.09 1434.91 276.2 1413.77 283.507 C 1406.36 286.065 1411.42 285.084 1406.81 288.058 C 1403.16 288.144 1395.16 287.476 1392.3 287.896 C 1367.22 291.579 1341.97 294.781 1316.93 298.624 C 1314.55 297.93 1313.27 295.545 1311.67 293.415 z"/>
<path transform="translate(0,0)" fill="rgb(0,2,11)" d="M 1154.39 804.024 C 1179.13 803.821 1203.77 804.749 1228.5 804.848 C 1231.49 804.86 1234.88 804.719 1237.83 804.924 C 1260.55 807.546 1293.26 800.999 1311.92 808.502 C 1293.56 812.701 1138.87 812.029 1121.65 807.998 C 1129.15 802.985 1144.78 805.066 1154.39 804.024 z"/>
<path transform="translate(0,0)" fill="rgb(1,9,29)" d="M 174.6 387.733 C 182.263 394.307 192.77 401.618 199.523 408.397 C 231.98 440.98 269.675 467.35 303.884 497.813 L 303.933 499.237 C 302.512 499.685 301.021 500.187 299.583 500.534 C 281.75 485.597 262.913 471.616 245.084 456.867 C 218.677 434.987 193.077 412.152 168.334 388.408 C 171.169 388.706 171.942 388.411 174.6 387.733 z"/>
<path transform="translate(0,0)" fill="rgb(1,49,85)" d="M 1307.5 495.897 L 1305.48 499.097 C 1293.44 504.704 1238.35 499.378 1220.99 500.439 C 1219.52 500.529 1204.17 495.6 1200.93 494.666 L 1200.52 495.879 C 1209.22 503.298 1224.48 503.799 1234.69 505.373 C 1205.91 506.568 1184.56 493.486 1170.16 467.808 C 1159.6 448.979 1180.42 405.964 1195.4 412.52 C 1157.68 442.093 1175.49 493.969 1223.78 498.25 C 1254.73 500.994 1278 496.396 1307.5 495.897 z"/>
<path transform="translate(0,0)" fill="rgb(6,75,102)" d="M 1475.75 258.827 C 1493.25 252.147 1514.85 246.067 1533.27 239.524 C 1553.51 232.339 1581.98 220.025 1601.81 214.916 C 1606.14 215.181 1615.19 216.032 1619 215.212 C 1614.36 215.443 1612.93 217.868 1610.37 218.161 L 1609.59 217.623 C 1611.75 216.89 1616 217.307 1617.82 218.136 C 1590.61 220.905 1572.62 232.4 1547.72 242.068 C 1525.88 250.549 1499.14 257.351 1477.95 265.659 C 1477.57 263.69 1476.44 260.797 1475.75 258.827 z"/>
<path transform="translate(0,0)" fill="rgb(1,49,85)" d="M 1013.74 665.816 C 1033.58 712.208 1100.11 696.17 1141.33 703.863 C 1136.38 704.664 1127.81 703.916 1124.5 706.472 C 1126.99 707.483 1128.37 707.584 1130.97 707.949 C 1114.45 710.23 1067.84 706.805 1050.45 703.505 C 1036.12 700.787 1022.71 692.825 1014.59 680.121 C 1014.46 675.584 1014.02 670.401 1013.74 665.816 z"/>
<path transform="translate(0,0)" fill="rgb(0,25,66)" d="M 113.545 315.89 C 120.2 317.474 128.301 319.528 135.04 319.97 C 171.306 326.95 191.265 329.76 227.046 333.36 C 225.362 336.409 225.116 336.784 222.033 338.363 L 223.248 338.043 C 221.15 339.311 220.207 339.235 217.834 339.402 C 215.402 338.934 212.204 338.785 209.652 338.583 C 179.655 336.211 149.806 330.914 120.381 324.326 C 118.117 323.333 115.846 322.357 113.567 321.398 L 111.437 322.296 L 110.79 320.74 C 112.101 318.839 112.555 317.98 113.545 315.89 z"/>
<path transform="translate(0,0)" fill="rgb(1,9,29)" d="M 113.545 315.89 C 120.2 317.474 128.301 319.528 135.04 319.97 C 129.325 324.022 127.428 323.833 120.381 324.326 C 118.117 323.333 115.846 322.357 113.567 321.398 L 111.437 322.296 L 110.79 320.74 C 112.101 318.839 112.555 317.98 113.545 315.89 z"/>
<path transform="translate(0,0)" fill="rgb(0,33,60)" d="M 1360.83 695.107 L 1375.48 693.491 C 1374.91 696.382 1374.78 697.92 1372.93 700.159 L 1370.29 700.113 C 1366.98 700.603 1363.59 701.227 1360.25 701.109 C 1333.46 704.343 1307.79 707.383 1280.75 708.863 C 1275.78 709.136 1259.17 711.338 1255.24 710.763 C 1258.38 708.606 1267.55 710.678 1271.02 708.244 C 1266.72 702.838 1231.49 706.374 1221.83 704.857 C 1228.19 703.873 1246.21 704.121 1254.29 703.581 C 1282.36 701.704 1310.63 700.929 1338.59 697.512 C 1345.98 696.48 1353.39 695.678 1360.83 695.107 z"/>
<path transform="translate(0,0)" fill="rgb(0,25,66)" d="M 1360.83 695.107 L 1375.48 693.491 C 1374.91 696.382 1374.78 697.92 1372.93 700.159 L 1370.29 700.113 C 1366.98 700.603 1363.59 701.227 1360.25 701.109 C 1351.4 700.709 1346.94 700.447 1338.59 697.512 C 1345.98 696.48 1353.39 695.678 1360.83 695.107 z"/>
<path transform="translate(0,0)" fill="rgb(1,9,29)" d="M 1360.83 695.107 L 1375.48 693.491 C 1374.91 696.382 1374.78 697.92 1372.93 700.159 L 1370.29 700.113 C 1366.06 699.717 1364.07 700.31 1361.08 697.994 L 1360.83 695.107 z"/>
<path transform="translate(0,0)" fill="rgb(0,33,60)" d="M 1275.41 606.727 C 1281.51 605.442 1283.93 602.06 1286.28 601.867 C 1328.66 598.401 1370.81 590.813 1413.2 587.714 C 1417.33 587.413 1417.58 588.025 1420.87 590.078 C 1416.66 590.948 1411.51 592.249 1407.35 592.758 C 1364.45 598.003 1318.41 606.055 1275.41 606.727 z"/>
<path transform="translate(0,0)" fill="rgb(1,49,85)" d="M 1041.86 288.931 C 1074.95 293.478 1106.38 298.354 1139.85 298.777 C 1142.91 298.816 1148.04 299.018 1150.99 299.453 C 1140.12 306.921 1135.58 305.21 1122.72 305.055 C 1104.79 304.003 1051.41 297.884 1034.19 293.608 C 1036.03 293.415 1035.41 293.537 1037.05 292.092 L 1035.6 292.102 C 1036.52 291.012 1040.35 289.588 1041.86 288.931 z"/>
<path transform="translate(0,0)" fill="rgb(0,2,11)" d="M 91.4257 308.984 C 99.7657 312.062 104.771 313.852 113.545 315.89 C 112.555 317.98 112.101 318.839 110.79 320.74 L 111.437 322.296 C 129.644 342.47 155.105 368.667 174.6 387.733 C 171.942 388.411 171.169 388.706 168.334 388.408 C 153.146 375.764 101.197 324.092 91.4257 308.984 z"/>
<path transform="translate(0,0)" fill="rgb(0,2,11)" d="M 827.147 755.616 C 840.834 759.077 855.05 763.96 868.589 766.996 C 896.022 773.148 926.173 776.964 953.457 783.033 C 948.401 783.237 942.447 782.305 938.508 783.938 L 936.848 785.854 C 930.634 785.362 911.944 781.307 905.135 779.896 C 879.979 774.683 852.458 769.044 827.756 761.929 C 827.845 759.057 826.942 757.652 827.147 755.616 z"/>
<path transform="translate(0,0)" fill="rgb(0,25,66)" d="M 563.145 657.534 C 592.961 672.538 620.725 683.241 650.931 696.392 L 665.809 702.291 C 664.15 704.637 663.946 704.954 663.533 707.85 C 659.39 706.358 654.847 704.938 651.135 702.633 C 639.21 697.934 569.996 668.314 562.122 662.659 C 562.644 661.591 562.92 658.874 563.145 657.534 z"/>
<path transform="translate(0,0)" fill="rgb(0,25,66)" d="M 227.046 333.36 C 255.824 337.71 283.389 336.257 309.011 339.599 C 300.786 340.325 304.759 342.925 295.624 343.607 C 268.861 345.605 244.173 342.982 217.834 339.402 C 220.207 339.235 221.15 339.311 223.248 338.043 L 222.033 338.363 C 225.116 336.784 225.362 336.409 227.046 333.36 z"/>
<path transform="translate(0,0)" fill="rgb(0,2,11)" d="M 983.25 787.95 C 993.792 788.437 1006.5 791.009 1017.21 792.37 C 1029.2 793.894 1041.57 795.247 1053.46 797.188 C 1052.05 799.017 1050.01 801.095 1049.81 803.226 C 1037.5 800.711 1026.61 800.53 1014.46 798.904 C 1000.01 796.97 984.487 794.505 970.184 791.785 C 974.419 787.745 977.503 788.271 983.25 787.95 z"/>
<path transform="translate(0,0)" fill="rgb(0,25,66)" d="M 381.952 339.828 C 383.893 339.53 385.828 339.424 387.789 339.363 C 419.19 338.391 450.879 336.023 482.277 335.839 C 476.558 337.335 467.573 337.907 463.797 339.911 L 463.767 341.136 C 466.853 342.642 475.853 341.691 480.24 341.781 L 480.249 342.405 C 468.757 345.562 429.855 344.283 416.133 344.133 C 410.388 344.07 398.028 341.12 391.981 340.151 C 388.568 339.604 385.037 340.086 381.952 339.828 z"/>
<path transform="translate(0,0)" fill="rgb(0,25,66)" d="M 426.25 587.818 L 426.188 584.146 L 428.068 582.216 C 451.696 598.656 472.928 607.44 494.137 621.156 L 503.997 626.417 C 503.319 628.207 502.661 630.214 501.683 631.832 L 489.768 625.577 C 472.393 616.236 442.473 598.546 426.25 587.818 z"/>
<path transform="translate(0,0)" fill="rgb(0,2,11)" d="M 1421.7 791.215 C 1440.01 787.226 1461.22 784.548 1479.88 781.18 C 1488.76 779.579 1512.5 775.185 1519.48 775.275 L 1518.23 778.453 C 1511.51 781.338 1444.1 793.33 1434.13 794.292 C 1431.06 794.042 1430.48 793.908 1427.59 792.927 C 1427.15 792.419 1422.74 791.478 1421.7 791.215 z"/>
<path transform="translate(0,0)" fill="rgb(0,33,60)" d="M 1381.43 384.292 C 1388.55 386.168 1385.34 387.62 1391.27 389.734 C 1368.11 391.13 1348.44 396.947 1325.56 396.948 L 1318.57 397.674 C 1316.04 397.294 1313.52 396.846 1311.02 396.33 L 1310.5 394.797 L 1312.76 392.346 C 1318.43 391.3 1320.72 390.85 1326.55 390.912 C 1328.81 390.524 1331.11 390.514 1333.4 390.379 C 1349.54 389.424 1365.47 386.779 1381.43 384.292 z"/>
<path transform="translate(0,0)" fill="rgb(1,9,29)" d="M 1312.76 392.346 C 1318.43 391.3 1320.72 390.85 1326.55 390.912 C 1333.2 391.24 1343.72 390.953 1349.53 392.086 C 1340.41 395.255 1329.29 393.506 1325.56 396.948 L 1318.57 397.674 C 1316.04 397.294 1313.52 396.846 1311.02 396.33 L 1310.5 394.797 L 1312.76 392.346 z"/>
<path transform="translate(0,0)" fill="rgb(1,9,29)" d="M 1420.43 685.942 C 1429.36 683.634 1443.21 682.861 1453.03 680.913 C 1471.42 677.264 1489.61 673.366 1508.1 670.253 L 1508.8 671.712 C 1503.19 673.297 1481.63 677.272 1479.51 678.624 L 1479.67 680.04 C 1490.09 678.541 1493.01 676.349 1504.67 676.594 C 1503.21 677.071 1444.79 688.987 1445.22 688.992 C 1438.69 688.563 1426.17 688.023 1420.43 685.942 z"/>
<path transform="translate(0,0)" fill="rgb(1,9,29)" d="M 1237.83 804.924 C 1249.48 802.673 1281.17 805.058 1295.07 803.769 C 1308.28 802.545 1323.03 799.626 1335.68 799.882 C 1342.58 800.367 1353.78 799.253 1358.6 800.44 L 1359.56 801.715 C 1358.43 803.628 1357.54 803.984 1355.65 805.103 C 1343.43 805.454 1323.37 805.903 1311.92 808.502 C 1293.26 800.999 1260.55 807.546 1237.83 804.924 z"/>
<path transform="translate(0,0)" fill="rgb(0,25,66)" d="M 1375.48 693.491 C 1389.48 690.575 1406.19 687.397 1420.43 685.942 C 1426.17 688.023 1438.69 688.563 1445.22 688.992 C 1420.57 694.797 1398.49 694.421 1372.93 700.159 C 1374.78 697.92 1374.91 696.382 1375.48 693.491 z"/>
<path transform="translate(0,0)" fill="rgb(1,49,85)" d="M 503.997 626.417 C 510.925 629.088 527.643 639.996 535.34 644.096 C 544.109 648.765 555.062 653.145 563.145 657.534 C 562.92 658.874 562.644 661.591 562.122 662.659 C 545.356 656.079 518.674 640.526 501.683 631.832 C 502.661 630.214 503.319 628.207 503.997 626.417 z"/>
<path transform="translate(0,0)" fill="rgb(1,60,76)" d="M 1601.81 214.916 C 1628.67 208.993 1657.64 221.885 1663.77 250.278 C 1663.98 251.274 1664.17 252.275 1664.33 253.28 C 1655.35 250.911 1655.26 225.563 1617.82 218.136 C 1616 217.307 1611.75 216.89 1609.59 217.623 L 1610.37 218.161 C 1612.93 217.868 1614.36 215.443 1619 215.212 C 1615.19 216.032 1606.14 215.181 1601.81 214.916 z"/>
<path transform="translate(0,0)" fill="rgb(1,49,85)" d="M 642.226 137.771 C 649.568 142.068 682.825 160.378 687.302 164.129 C 686.19 166.317 685.434 167.292 685.95 169.74 C 679.048 166.898 640.931 145.253 635.742 140.74 L 642.226 137.771 z"/>
<path transform="translate(0,0)" fill="rgb(0,25,66)" d="M 549.335 72.6763 C 564.242 83.6171 579.175 94.1659 593.913 105.364 L 594.765 113.137 C 578.151 102.452 563.309 90.5811 547.95 78.1687 L 549.335 72.6763 z"/>
<path transform="translate(0,0)" fill="rgb(0,25,66)" d="M 375.836 554.594 L 379.619 555.427 L 381.288 553.696 C 392.027 557.98 399.635 567.101 410.07 570.15 C 414.262 570.073 423.642 579.093 428.068 582.216 L 426.188 584.146 L 426.25 587.818 C 418.983 584.157 411.681 579.412 404.732 575.096 C 395.54 568.33 384.397 561.82 375.836 554.594 z"/>
<path transform="translate(0,0)" fill="rgb(1,9,29)" d="M 593.913 105.364 C 609.305 115.989 627.875 127.354 642.226 137.771 L 635.742 140.74 C 622.105 132.98 608.278 121.971 594.765 113.137 L 593.913 105.364 z"/>
<path transform="translate(0,0)" fill="rgb(1,60,76)" d="M 1916.35 391.995 C 1915.12 389.12 1915.16 390.183 1915.55 387.527 C 1921.22 382.96 1926.34 378.094 1931.81 373.439 C 1938.99 367.324 1945.62 355.211 1954.79 354.227 C 1947.05 371.814 1932.31 381.745 1916.35 391.995 z"/>
<path transform="translate(0,0)" fill="rgb(0,25,66)" d="M 665.809 702.291 C 673.441 705.239 704.497 714.35 706.857 720.646 L 703.915 722.832 C 694.292 720.497 672.607 712.103 663.533 707.85 C 663.946 704.954 664.15 704.637 665.809 702.291 z"/>
<path transform="translate(0,0)" fill="rgb(1,9,29)" d="M 1690.51 710.072 C 1694.05 712.609 1693.5 711.472 1694.89 715.142 C 1684.86 730.633 1673.1 737.244 1655.34 742.503 C 1654.09 736.644 1657.19 736.884 1662.35 734.475 C 1676.36 727.923 1682.1 722.529 1690.51 710.072 z"/>
<path transform="translate(0,0)" fill="rgb(1,60,76)" d="M 1699.72 667.953 C 1704.08 680.245 1704.11 696.506 1698.48 708.515 C 1698.22 709.072 1697.95 709.619 1697.65 710.154 L 1694.89 715.142 C 1693.5 711.472 1694.05 712.609 1690.51 710.072 L 1695.21 698.865 C 1696.61 688.755 1696.72 681.139 1695.75 671.039 L 1699.72 667.953 z"/>
<path transform="translate(0,0)" fill="rgb(0,33,60)" d="M 1695.21 698.865 L 1697.3 699.017 C 1698.8 702.082 1697.96 706.611 1697.65 710.154 L 1694.89 715.142 C 1693.5 711.472 1694.05 712.609 1690.51 710.072 L 1695.21 698.865 z"/>
<path transform="translate(0,0)" fill="rgb(0,25,66)" d="M 510.921 41.3037 C 521.423 47.0013 539.745 64.1973 549.335 72.6763 L 547.95 78.1687 C 541.968 73.0933 535.214 67.2553 529.03 62.3147 C 528.326 61.7522 523.771 60.5685 522.209 59.9125 L 522.985 58.1842 C 527.099 57.9826 529.273 60.182 532.916 62.8337 L 533.11 61.9521 C 529.888 57.0132 520.289 50.7843 515.699 46.8655 C 509.721 52.3342 516.491 77.7803 512.042 86.2167 C 511.205 72.6808 511.448 55.3617 510.921 41.3037 z"/>
<path transform="translate(0,0)" fill="url(#Gradient3)" d="M 1053.46 797.188 C 1063.37 798.438 1075.32 798.845 1085.43 799.148 C 1088.51 799.711 1091.58 800.298 1094.65 800.91 L 1094.71 802.206 C 1092.81 803.445 1090.9 804.663 1088.98 805.86 C 1078.88 806.116 1059.33 804.986 1049.81 803.226 C 1050.01 801.095 1052.05 799.017 1053.46 797.188 z"/>
<path transform="translate(0,0)" fill="rgb(0,33,60)" d="M 1665.64 635.514 C 1684.11 639.335 1693.15 651.124 1699.72 667.953 L 1695.75 671.039 C 1688.98 648.644 1668.68 645.303 1665.64 635.514 z"/>
<path transform="translate(0,0)" fill="rgb(0,25,66)" d="M 1085.43 799.148 C 1106.31 798.989 1126.38 804.22 1147.24 803.795 C 1149.52 803.749 1152.13 803.784 1154.39 804.024 C 1144.78 805.066 1129.15 802.985 1121.65 807.998 C 1110.97 807.064 1099.72 806.524 1088.98 805.86 C 1090.9 804.663 1092.81 803.445 1094.71 802.206 L 1094.65 800.91 C 1091.58 800.298 1088.51 799.711 1085.43 799.148 z"/>
<path transform="translate(0,0)" fill="rgb(0,33,60)" d="M 1266.73 402.076 L 1272.35 400.161 L 1271.65 399.884 C 1276.3 399.613 1279.82 399.245 1284.42 398.63 L 1270.47 398.204 L 1270.02 397.326 C 1286.54 396.054 1296.37 395.204 1312.76 392.346 L 1310.5 394.797 L 1311.02 396.33 C 1313.52 396.846 1316.04 397.294 1318.57 397.674 C 1299.45 401.047 1286.36 402.525 1266.73 402.076 z"/>
<path transform="translate(0,0)" fill="rgb(6,75,102)" d="M 1429.79 380.598 C 1430.03 379.011 1430.6 377.695 1431.15 376.194 C 1435.54 372.392 1472.6 365.75 1478.36 369.183 C 1468.29 373.099 1440.55 379.115 1429.79 380.598 z"/>
<path transform="translate(0,0)" fill="rgb(0,33,60)" d="M 687.302 164.129 C 697.937 169.818 709.695 175.825 720.018 181.881 C 718.592 182.574 715.415 183.772 714.83 184.86 L 716.001 184.987 L 714.077 185.695 C 710.262 184.383 690.621 172.499 685.95 169.74 C 685.434 167.292 686.19 166.317 687.302 164.129 z"/>
<path transform="translate(0,0)" fill="rgb(1,9,29)" d="M 796.807 747.287 C 802.904 748.842 821.951 753.409 827.147 755.616 C 826.942 757.652 827.845 759.057 827.756 761.929 C 817.286 759.41 804.345 756.058 794.249 752.713 C 794.84 750.287 795.537 749.359 796.807 747.287 z"/>
<path transform="translate(0,0)" fill="rgb(1,60,76)" d="M 1640.88 312.122 L 1638.97 308.815 C 1639.35 308.15 1639.48 307.889 1640.12 307.339 C 1649.11 299.662 1654.53 288.766 1661.17 279.228 C 1662.54 278.644 1663.66 278.163 1664.55 277.786 C 1662.09 290.859 1656.02 302.026 1644.84 309.626 C 1643.55 310.505 1642.23 311.338 1640.88 312.122 z"/>
<path transform="translate(0,0)" fill="rgb(0,33,60)" d="M 720.279 728.456 C 729.881 723.758 741.197 729.967 750.882 732.691 C 752.372 733.11 755.98 734.385 757.057 735.215 C 756.804 736.386 756.164 739.779 755.734 740.67 C 746.311 738.627 729.504 732.14 720.279 728.456 z"/>
<path transform="translate(0,0)" fill="url(#Gradient2)" d="M 953.457 783.033 C 961.458 783.684 975.199 786.365 983.25 787.95 C 977.503 788.271 974.419 787.745 970.184 791.785 C 959.021 788.992 947.971 789.004 936.848 785.854 L 938.508 783.938 C 942.447 782.305 948.401 783.237 953.457 783.033 z"/>
<path transform="translate(0,0)" fill="rgb(6,75,102)" d="M 1381.43 384.292 C 1394.8 382.305 1407.08 379.461 1420.55 381.131 C 1423.34 381.477 1424.44 379.879 1428.8 380.864 C 1420.64 384.497 1401.91 386.958 1391.27 389.734 C 1385.34 387.62 1388.55 386.168 1381.43 384.292 z"/>
<path transform="translate(0,0)" fill="rgb(0,2,11)" d="M 1390.69 794.648 C 1401.18 793.915 1411.28 792.137 1421.7 791.215 C 1422.74 791.478 1427.15 792.419 1427.59 792.927 C 1430.48 793.908 1431.06 794.042 1434.13 794.292 C 1428.06 795.181 1413.7 798.555 1409.58 798.602 C 1404.96 797.627 1394.18 794.591 1390.69 794.648 z"/>
<path transform="translate(0,0)" fill="rgb(1,9,29)" d="M 1373.59 796.696 L 1390.69 794.648 C 1394.18 794.591 1404.96 797.627 1409.58 798.602 L 1379.53 801.675 C 1375.81 800.275 1374.71 801.534 1371.95 799.986 L 1373.59 796.696 z"/>
<path transform="translate(0,0)" fill="rgb(0,25,66)" d="M 1335.68 799.882 C 1349.24 798.623 1359.55 798.466 1373.59 796.696 L 1371.95 799.986 C 1374.71 801.534 1375.81 800.275 1379.53 801.675 C 1371.93 803.151 1363.33 804.934 1355.65 805.103 C 1357.54 803.984 1358.43 803.628 1359.56 801.715 L 1358.6 800.44 C 1353.78 799.253 1342.58 800.367 1335.68 799.882 z"/>
<path transform="translate(0,0)" fill="rgb(0,25,66)" d="M 757.057 735.215 C 763.682 737.427 771.409 739.788 777.867 742.196 L 775.74 743.745 L 776.678 747.609 C 769.595 745.563 762.458 743.695 755.734 740.67 C 756.164 739.779 756.804 736.386 757.057 735.215 z"/>
<path transform="translate(0,0)" fill="rgb(1,9,29)" d="M 777.867 742.196 C 782.499 743.383 792.746 745.724 796.807 747.287 C 795.537 749.359 794.84 750.287 794.249 752.713 C 787.709 751.099 782.991 749.892 776.678 747.609 L 775.74 743.745 L 777.867 742.196 z"/>
<path transform="translate(0,0)" fill="rgb(0,2,11)" d="M 957.165 480.079 C 955.887 479.082 951.281 477.412 949.466 476.655 C 941.303 473.216 932.616 467.439 927.765 459.807 C 920.523 448.412 917.304 429.964 919.984 416.816 C 926.708 383.834 960.881 374.343 990.318 381.09 C 1015.97 386.97 1026.28 393.815 1040.55 415.585 C 1053.72 439.669 1041.97 468.659 1019.26 481.619 C 1005.26 489.607 976.944 486.416 961.987 481.842 C 960.349 481.342 958.74 480.753 957.165 480.079 z M 1036.25 418.744 C 1027.9 404.339 1017.75 393.406 1001.1 389.853 C 985.062 386.431 958.083 382.024 943.8 391.908 C 907.571 416.977 922.586 465.118 962.565 475.131 C 964.281 475.558 966.004 475.954 967.734 476.317 C 981.424 478.645 1001.07 482.834 1014.15 477.782 C 1037.65 468.704 1044.19 440.318 1036.25 418.744 z"/>
<path transform="translate(0,0)" fill="rgb(1,49,85)" d="M 1040.55 415.585 C 1053.72 439.669 1041.97 468.659 1019.26 481.619 C 1005.26 489.607 976.944 486.416 961.987 481.842 C 960.349 481.342 958.74 480.753 957.165 480.079 C 963.063 479.437 962.674 479.64 967.734 476.317 C 981.424 478.645 1001.07 482.834 1014.15 477.782 C 1037.65 468.704 1044.19 440.318 1036.25 418.744 C 1037.53 418.138 1039.38 416.528 1040.55 415.585 z"/>
<path transform="translate(0,0)" fill="rgb(1,49,85)" d="M 1060.95 415.447 C 1062.97 416.762 1063.9 417.86 1064.75 420.133 C 1067.74 428.105 1068.27 466.901 1065.39 473.125 C 1064.51 472.976 1060.59 472.356 1060.58 471.509 C 1060.44 456.193 1056.93 429.693 1060.95 415.447 z"/>
<path transform="translate(0,0)" fill="rgb(6,75,102)" d="M 639.391 465.204 C 647.128 465.199 703.033 490.518 707.123 497.059 C 696.717 497.255 645.255 472.829 639.391 465.204 z"/>
<path transform="translate(0,0)" fill="url(#Gradient1)" d="M 1311.67 293.415 C 1313.27 295.545 1314.55 297.93 1316.93 298.624 C 1306.89 300.413 1297.49 302.167 1287.31 303.131 C 1274.46 304.346 1261.67 304.903 1248.81 305.768 C 1236.15 306.62 1223.41 308.832 1210.72 309.524 C 1189.48 310.212 1168.03 309.318 1146.85 307.685 C 1141.67 307.285 1127.04 306.375 1122.72 305.055 C 1135.58 305.21 1140.12 306.921 1150.99 299.453 C 1175.74 301.757 1204.28 300.453 1229.12 299.302 C 1256.11 298.053 1285.06 297.488 1311.67 293.415 z"/>
<path transform="translate(0,0)" fill="rgb(0,25,66)" fill-opacity="0.0156863" d="M 756.872 518.969 C 744.124 513.838 714.584 502.907 704.644 495.561 C 719.485 500.278 744.36 508.73 758.804 514.405 L 757.134 515.478 C 757.092 516.277 757.034 518.308 756.872 518.969 z"/>
</g></svg></svg><svg x="417" y="205" width="153" height="361" xmlns="http://www.w3.org/2000/svg" style="display:block" preserveAspectRatio="none"><svg version="1.1" xmlns="http://www.w3.org/2000/svg" style="display: block;" width="153" height="361" viewBox="4.59 4.61 864.73 2040.32" preserveAspectRatio="none"><g id="svg-group-982baf78-4b39-4b4d-ad7a-5a31f0fbda67">
<defs>
	<linearGradient id="Gradient1" gradientUnits="userSpaceOnUse" x1="97.2466" y1="1145.68" x2="97.8293" y2="1153.31">
		<stop class="stop0" offset="0" stop-opacity="1" stop-color="rgb(0,0,0)"/>
		<stop class="stop1" offset="1" stop-opacity="1" stop-color="rgb(0,8,38)"/>
	</linearGradient>
	<linearGradient id="Gradient2" gradientUnits="userSpaceOnUse" x1="554.16" y1="62.3421" x2="548.404" y2="49.0216">
		<stop class="stop0" offset="0" stop-opacity="1" stop-color="rgb(1,73,113)"/>
		<stop class="stop1" offset="1" stop-opacity="1" stop-color="rgb(0,42,70)"/>
	</linearGradient>
	<linearGradient id="Gradient3" gradientUnits="userSpaceOnUse" x1="108.286" y1="1350.76" x2="1246.68" y2="762.726">
		<stop class="stop0" offset="0" stop-opacity="1" stop-color="rgb(10,62,125)"/>
		<stop class="stop1" offset="1" stop-opacity="1" stop-color="rgb(14,107,138)"/>
	</linearGradient>
</defs>
<path transform="translate(0,0)" fill="url(#Gradient3)" d="M 697.547 16.6063 C 721.828 13.5453 848.083 4.60913 863.26 10.7686 C 865.801 14.7508 864.847 59.1763 864.511 66.5476 L 864.444 158.689 C 864.478 168.938 864.43 197.445 866 206.292 L 866 206.821 C 864.508 215.373 865.436 224.023 864.317 231.134 C 849.075 232.861 832.733 232.842 817.32 234.022 C 801.67 237.531 785.392 236.535 770.487 239.777 C 760.013 242.206 749.015 243.789 738.046 246.017 C 560.445 282.085 588.315 487.546 570.472 622.844 C 568.137 640.551 568.756 658.642 566.167 676.365 C 557.248 745.645 543.544 811.747 511.744 874.639 C 506.164 885.674 482.947 923.44 474.603 930.149 C 461.906 947.427 434.43 968.172 416.094 980.176 C 411.241 983.173 379.872 1001.52 376.164 1001.67 C 367.722 1002.07 327.768 1009.29 330.273 1020.61 L 328.853 1022.58 C 330.336 1024.25 329.577 1023.83 331.667 1024.43 C 337.439 1025.33 345.816 1028.9 351.525 1031.1 C 362.285 1035.62 371.579 1038.77 381.838 1044.5 C 387.561 1047.37 417.677 1062.64 420.262 1065.97 C 467.651 1096.49 499.618 1138.12 522.068 1189.56 C 524.951 1196.16 531.621 1211.34 533.342 1217.92 C 534.603 1221.45 542.599 1243.46 542.743 1245.72 C 571.204 1332.07 574.826 1460.69 581.691 1552.47 C 582.368 1561.4 583.361 1570.29 584.67 1579.15 C 585.162 1582.39 588.072 1598.91 587.922 1600.91 C 595.177 1647.42 601.942 1685.62 625.561 1727.76 C 634.224 1740.9 644.074 1753.21 654.988 1764.55 C 666.306 1772.78 688.836 1788.71 702.268 1792.3 C 710.09 1795.56 714.556 1797.35 722.871 1799.11 C 734.428 1802.86 744.421 1805.67 756.387 1807.81 C 764.026 1809.18 774.113 1809.84 781.294 1811.53 C 796.497 1814.06 859.432 1818.26 866 1821.56 L 866 1940.68 L 866 2034.61 L 866 2041.07 C 855.619 2044.93 764.045 2042.45 749.873 2041.05 C 738.956 2039.83 725.57 2039.39 714.423 2038.77 C 705.902 2038.61 695.068 2037.83 686.787 2036.09 C 680.654 2035.08 674.498 2034.23 668.323 2033.53 C 656.636 2032.49 643.796 2029.23 631.815 2027.52 C 625.606 2026.86 622.722 2026.34 616.673 2024.8 C 600.243 2022.14 567.48 2011.02 551.345 2005.39 C 536.542 1998.63 525.19 1996.22 507.887 1987.44 C 470.2 1969.35 436.414 1944.06 408.428 1913.01 C 352.815 1853.12 319.272 1752.46 309.735 1672.9 C 299.006 1583.42 296.505 1490.66 286.195 1401.04 C 276.963 1320.79 263.68 1221.86 185.338 1178.65 C 176.507 1173.78 160.577 1168.88 150.587 1165.42 L 124.798 1158.23 L 116.239 1155.74 C 104.792 1152.69 90.2728 1151.93 77.7482 1149.44 C 60.0075 1145.86 24.9034 1146.26 10.2484 1141.29 C 8.33292 1139.03 8.91883 1135.99 9.02559 1132.87 C 8.11867 1116.48 8.83977 1092.51 8.84622 1075.66 L 8.85948 966.474 L 8.7685 923.145 C 8.73342 918.558 7.92139 907.865 9.67501 904.627 C 13.0213 903.104 14.0787 903.136 17.7924 902.892 C 24.3224 901.513 44.3042 900.318 51.6702 899.83 C 57.8959 898.987 65.4805 898.452 71.8369 897.828 C 84.0718 896.4 101.351 892.639 113.818 890.304 C 141.641 885.545 179.112 867.704 202.901 852.222 C 203.962 850.346 211.898 844.577 214.146 842.375 C 267.28 790.948 275.971 716.581 285.565 647.758 C 308.488 483.321 282.626 254.386 415.336 130.869 C 425.089 119.121 444.197 104.482 456.814 95.9019 C 514.511 57.2077 580.408 32.447 649.31 23.5724 C 665.785 20.6449 680.987 18.6749 697.547 16.6063 z"/>
<path transform="translate(0,0)" fill="rgb(2,42,87)" d="M 17.7924 902.892 C 24.3224 901.513 44.3042 900.318 51.6702 899.83 C 53.7606 905.38 56.1042 904.618 61.6471 905.117 C 56.7902 905.962 55.0629 906.207 50.1079 906.102 L 41.7441 907.7 C 41.8018 910.639 42.0958 915.578 41.4975 918.269 C 40.7185 914.981 40.8844 912.252 40.9004 908.875 C 38.3987 907.415 19.9316 911.125 16.4973 913.114 C 12.9466 923.724 14.2067 977.537 14.2632 990.946 L 14.1751 1083.51 C 14.1564 1100.42 14.7218 1122.37 13.7982 1138.83 L 12.5314 1134.98 L 12.1714 1135.95 L 11.2298 1136.08 L 11.4336 1136.62 L 9.02559 1132.87 C 8.11867 1116.48 8.83977 1092.51 8.84622 1075.66 L 8.85948 966.474 L 8.7685 923.145 C 8.73342 918.558 7.92139 907.865 9.67501 904.627 C 13.0213 903.104 14.0787 903.136 17.7924 902.892 z"/>
<path transform="translate(0,0)" fill="rgb(0,19,58)" d="M 17.7924 902.892 C 24.3224 901.513 44.3042 900.318 51.6702 899.83 C 53.7606 905.38 56.1042 904.618 61.6471 905.117 C 56.7902 905.962 55.0629 906.207 50.1079 906.102 C 36.4231 905.808 28.8215 902.745 17.7924 902.892 z"/>
<path transform="translate(0,0)" fill="url(#Gradient2)" d="M 415.336 130.869 C 425.089 119.121 444.197 104.482 456.814 95.9019 C 514.511 57.2077 580.408 32.447 649.31 23.5724 C 642.976 30.9198 625.504 33.8865 615.905 35.9168 C 560.79 47.5736 512.505 68.5307 464.476 97.81 C 458.146 101.601 452.102 105.85 446.391 110.523 C 443.423 112.949 430.205 124.979 428.629 125.396 C 428.495 119.414 460.048 100.591 463.983 94.9594 L 463.904 95.5103 C 453.953 95.58 424.178 128.678 415.336 130.869 z"/>
<path transform="translate(0,0)" fill="rgb(2,42,87)" d="M 542.743 1245.72 C 571.204 1332.07 574.826 1460.69 581.691 1552.47 C 582.368 1561.4 583.361 1570.29 584.67 1579.15 C 585.162 1582.39 588.072 1598.91 587.922 1600.91 C 576.78 1596.85 577.863 1443.94 570.033 1432.62 L 568.235 1432.89 C 565.328 1435.18 565.137 1439.13 564.448 1442.85 C 564.555 1425.49 564.046 1408.33 561.761 1391.04 C 560.252 1385.74 558.01 1383.29 557.15 1377.63 C 555.999 1370.04 564.851 1358.57 563.482 1352.84 C 558.203 1330.73 555.661 1308.31 551.243 1286.07 C 548.818 1273.87 544.906 1261.52 541.789 1249.45 C 541.788 1249.45 542.676 1245.99 542.743 1245.72 z"/>
<path transform="translate(0,0)" fill="rgb(1,62,86)" d="M 697.547 16.6063 C 721.828 13.5453 848.083 4.60913 863.26 10.7686 C 865.801 14.7508 864.847 59.1763 864.511 66.5476 C 863.007 57.1454 863.65 26.6226 863.689 15.2325 C 845.704 14.8654 827.712 15.1197 809.745 15.9951 C 782.93 17.4991 721.651 23.9781 697.547 16.6063 z"/>
<path transform="translate(0,0)" fill="rgb(0,7,26)" d="M 420.262 1065.97 C 467.651 1096.49 499.618 1138.12 522.068 1189.56 C 524.951 1196.16 531.621 1211.34 533.342 1217.92 C 520.362 1207.97 517.023 1190.08 508.626 1175.13 C 483.388 1130.21 463.507 1101.72 420.913 1072.54 L 421.174 1071.88 C 420.442 1069.3 420.412 1068.58 420.262 1065.97 z"/>
<path transform="translate(0,0)" fill="rgb(0,15,46)" d="M 408.428 1913.01 L 411.657 1910.06 C 418.372 1913.79 427.531 1925.57 433.535 1931.19 C 450.454 1947.01 485.167 1972.31 507.054 1979.9 C 507.104 1982.59 506.921 1984.97 507.887 1987.44 C 470.2 1969.35 436.414 1944.06 408.428 1913.01 z"/>
<path transform="translate(0,0)" fill="rgb(0,7,26)" d="M 754.393 2037.77 C 789.378 2037.43 824.289 2036.9 859.292 2037.2 C 862.645 2037.23 863.931 2037 866 2034.61 L 866 2041.07 C 855.619 2044.93 764.045 2042.45 749.873 2041.05 L 754.393 2037.77 z"/>
<path transform="translate(0,0)" fill="rgb(0,15,46)" d="M 553.795 2001.03 C 575.905 2007.41 597.756 2014.5 620.31 2019.13 C 623.283 2019.74 626.305 2020.23 629.239 2021 C 634.534 2021.48 636.968 2022.05 642.031 2023.29 C 638.163 2027.76 637.34 2026.01 631.815 2027.52 C 625.606 2026.86 622.722 2026.34 616.673 2024.8 C 600.243 2022.14 567.48 2011.02 551.345 2005.39 C 552.855 2003.62 552.914 2003.22 553.795 2001.03 z"/>
<path transform="translate(0,0)" fill="rgb(2,42,87)" d="M 781.294 1811.53 C 796.497 1814.06 859.432 1818.26 866 1821.56 L 866 1940.68 C 865.528 1939.5 864.631 1936.73 864.657 1935.49 C 865.397 1900.24 862.363 1864.39 862.502 1829.32 C 860.729 1828.94 858.959 1828.55 857.193 1828.14 C 848.98 1826.22 853.742 1826.2 850.606 1821.16 C 845.423 1820.05 827.995 1818.88 821.841 1818.4 C 808.539 1817.36 794.803 1814.92 781.868 1813.96 L 781.294 1811.53 z"/>
<path transform="translate(0,0)" fill="rgb(0,19,58)" d="M 113.818 890.304 C 141.641 885.545 179.112 867.704 202.901 852.222 C 197.865 865.165 178.401 865.11 171.623 875.814 C 176.11 874.953 190.974 865.87 194.763 862.875 L 195.198 863.661 C 178.62 877.295 144.553 889.341 123.145 894.025 C 117.427 894.421 116.574 895.193 113.818 890.304 z"/>
<path transform="translate(0,0)" fill="rgb(2,42,87)" d="M 722.871 1799.11 C 734.428 1802.86 744.421 1805.67 756.387 1807.81 C 764.026 1809.18 774.113 1809.84 781.294 1811.53 L 781.868 1813.96 C 777.389 1813.09 777.366 1812.29 774.056 1813.91 C 778.271 1820.11 816.589 1816.67 821.47 1820.64 L 820.277 1821.5 C 780.423 1817.77 754.547 1815.22 714.764 1804.48 C 718.768 1802.66 719.517 1802.02 722.871 1799.11 z"/>
<path transform="translate(0,0)" fill="rgb(0,7,26)" d="M 9.02559 1132.87 L 11.4336 1136.62 L 11.2298 1136.08 L 12.1714 1135.95 L 12.5314 1134.98 L 13.7982 1138.83 C 27.7425 1139.6 42.0427 1139.67 55.7169 1140.55 C 66.0448 1141.21 80.4224 1144.36 91.1327 1145.67 C 87.3485 1146.35 80.2764 1147.05 77.7482 1149.44 C 60.0075 1145.86 24.9034 1146.26 10.2484 1141.29 C 8.33292 1139.03 8.91883 1135.99 9.02559 1132.87 z"/>
<path transform="translate(0,0)" fill="rgb(0,7,26)" d="M 416.094 980.176 C 414.442 979.306 414.505 979.381 413.376 977.906 C 415.498 973.389 428.531 964.581 433.37 961.215 C 445.564 952.734 458.398 936.308 469.196 928.313 C 470.258 930.224 462.604 935.11 461.954 938.909 C 467.858 935.777 470.588 930.415 474.603 930.149 C 461.906 947.427 434.43 968.172 416.094 980.176 z"/>
<path transform="translate(0,0)" fill="rgb(0,19,58)" d="M 71.8369 897.828 C 84.0718 896.4 101.351 892.639 113.818 890.304 C 116.574 895.193 117.427 894.421 123.145 894.025 C 113.14 896.364 71.2755 905.16 62.6853 905.213 L 61.6471 905.117 C 56.1042 904.618 53.7606 905.38 51.6702 899.83 C 57.8959 898.987 65.4805 898.452 71.8369 897.828 z"/>
<path transform="translate(0,0)" fill="rgb(0,15,46)" d="M 51.6702 899.83 C 57.8959 898.987 65.4805 898.452 71.8369 897.828 C 69.1689 903.717 69.1721 903.436 62.6853 905.213 L 61.6471 905.117 C 56.1042 904.618 53.7606 905.38 51.6702 899.83 z"/>
<path transform="translate(0,0)" fill="rgb(0,7,26)" d="M 650.645 1766.85 C 649.531 1764.54 646.922 1762.3 647.297 1760.44 C 649.679 1762.09 652.04 1764.13 654.988 1764.55 C 666.306 1772.78 688.836 1788.71 702.268 1792.3 L 701.219 1795.82 C 696.316 1796.41 697.328 1791.85 688.419 1792.92 C 682.248 1790.03 675.356 1785.93 669.336 1782.53 L 663.342 1778.69 L 650.645 1766.85 z"/>
<path transform="translate(0,0)" fill="rgb(2,42,87)" d="M 670.972 2027.08 C 680.058 2027.9 703.059 2029.9 711.383 2031.95 L 712.888 2031.93 L 717.686 2033.47 C 717.349 2036 714.515 2037.05 714.423 2038.77 C 705.902 2038.61 695.068 2037.83 686.787 2036.09 C 680.654 2035.08 674.498 2034.23 668.323 2033.53 C 672.276 2031.12 672.073 2030.83 670.972 2027.08 z"/>
<path transform="translate(0,0)" fill="rgb(0,15,46)" d="M 686.787 2036.09 C 694.727 2036.13 691.431 2034.28 698.879 2032.44 C 702.712 2031.5 707.4 2031.78 711.383 2031.95 L 712.888 2031.93 L 717.686 2033.47 C 717.349 2036 714.515 2037.05 714.423 2038.77 C 705.902 2038.61 695.068 2037.83 686.787 2036.09 z"/>
<path transform="translate(0,0)" fill="rgb(0,19,58)" d="M 507.054 1979.9 C 515.648 1983.75 547.612 1997.14 553.795 2001.03 C 552.914 2003.22 552.855 2003.62 551.345 2005.39 C 536.542 1998.63 525.19 1996.22 507.887 1987.44 C 506.921 1984.97 507.104 1982.59 507.054 1979.9 z"/>
<path transform="translate(0,0)" fill="rgb(0,15,46)" d="M 381.838 1044.5 C 387.561 1047.37 417.677 1062.64 420.262 1065.97 C 420.412 1068.58 420.442 1069.3 421.174 1071.88 L 420.913 1072.54 C 408.62 1064.97 390.617 1057.63 379.864 1049.77 L 381.461 1048.59 L 381.838 1044.5 z"/>
<path transform="translate(0,0)" fill="rgb(0,15,46)" d="M 625.561 1727.76 C 634.224 1740.9 644.074 1753.21 654.988 1764.55 C 652.04 1764.13 649.679 1762.09 647.297 1760.44 C 646.922 1762.3 649.531 1764.54 650.645 1766.85 C 643.697 1761.65 616.734 1736.76 625.561 1727.76 z"/>
<path transform="translate(0,0)" fill="rgb(2,42,87)" d="M 663.342 1778.69 L 669.336 1782.53 C 666.909 1783.26 663.423 1785.69 661.029 1786.01 C 654.611 1786.87 640.967 1790.06 635.372 1786.69 C 633.736 1783.54 634.406 1783.89 635.132 1779.6 C 638.067 1776.1 653.79 1785.16 663.342 1778.69 z"/>
<path transform="translate(0,0)" fill="rgb(2,42,87)" d="M 712.888 2031.93 C 721.943 2031.97 731.002 2032.17 739.83 2034.34 C 745.744 2035.78 748.066 2036.92 754.393 2037.77 L 749.873 2041.05 C 738.956 2039.83 725.57 2039.39 714.423 2038.77 C 714.515 2037.05 717.349 2036 717.686 2033.47 L 712.888 2031.93 z"/>
<path transform="translate(0,0)" fill="url(#Gradient1)" d="M 91.1327 1145.67 C 102.786 1146.86 111.341 1148.91 122.73 1151.4 C 119.051 1152.39 118.711 1152.8 116.239 1155.74 C 104.792 1152.69 90.2728 1151.93 77.7482 1149.44 C 80.2764 1147.05 87.3485 1146.35 91.1327 1145.67 z"/>
<path transform="translate(0,0)" fill="rgb(1,62,86)" d="M 770.487 239.777 C 770.427 238.627 770.477 237.109 770.484 235.924 C 778.654 229.064 807.06 232.007 817.32 234.022 C 801.67 237.531 785.392 236.535 770.487 239.777 z"/>
<path transform="translate(0,0)" fill="rgb(0,19,58)" d="M 642.031 2023.29 C 652.005 2025.11 660.832 2026.57 670.972 2027.08 C 672.073 2030.83 672.276 2031.12 668.323 2033.53 C 656.636 2032.49 643.796 2029.23 631.815 2027.52 C 637.34 2026.01 638.163 2027.76 642.031 2023.29 z"/>
<path transform="translate(0,0)" fill="rgb(0,7,26)" d="M 351.525 1031.1 C 362.285 1035.62 371.579 1038.77 381.838 1044.5 L 381.461 1048.59 L 379.864 1049.77 C 369.94 1044.15 360.356 1041.38 349.978 1036.87 C 351.178 1036.23 351.314 1035.93 352.284 1034.98 L 351.525 1031.1 z"/>
<path transform="translate(0,0)" fill="rgb(0,19,58)" d="M 688.419 1792.92 C 697.328 1791.85 696.316 1796.41 701.219 1795.82 L 702.268 1792.3 C 710.09 1795.56 714.556 1797.35 722.871 1799.11 C 719.517 1802.02 718.768 1802.66 714.764 1804.48 C 705.549 1800.69 697.191 1797.79 688.419 1792.92 z"/>
<path transform="translate(0,0)" fill="rgb(0,7,26)" d="M 331.667 1024.43 C 337.439 1025.33 345.816 1028.9 351.525 1031.1 L 352.284 1034.98 C 351.314 1035.93 351.178 1036.23 349.978 1036.87 C 344.845 1034.98 331.693 1030.79 328.106 1027.46 L 328.222 1025.83 L 331.667 1024.43 z"/>
<path transform="translate(0,0)" fill="rgb(0,15,46)" d="M 136.446 1154.95 C 141.917 1156.51 150.854 1158.15 153.956 1162.55 C 152.788 1164.33 152.51 1164.35 150.587 1165.42 L 124.798 1158.23 C 129.881 1157.65 131.967 1157.65 136.446 1154.95 z"/>
<path transform="translate(0,0)" fill="rgb(0,7,26)" d="M 122.73 1151.4 L 136.446 1154.95 C 131.967 1157.65 129.881 1157.65 124.798 1158.23 L 116.239 1155.74 C 118.711 1152.8 119.051 1152.39 122.73 1151.4 z"/>
<path transform="translate(0,0)" fill="rgb(2,42,87)" fill-opacity="0.988235" d="M 330.273 1020.61 C 327.768 1009.29 367.722 1002.07 376.164 1001.67 C 364.552 1008.78 343.823 1015.13 330.273 1020.61 z"/>
</g></svg></svg><svg x="610" y="118" width="343" height="535" xmlns="http://www.w3.org/2000/svg" style="display:block" preserveAspectRatio="none"><svg version="1.1" xmlns="http://www.w3.org/2000/svg" style="display: block;" width="343" height="535" viewBox="-0.67 -3.79 1317.58 2055.12" preserveAspectRatio="none"><g id="svg-group-df6c0330-9016-42d2-9b50-e4da6df8360d">
<defs>
	<linearGradient id="Gradient1" gradientUnits="userSpaceOnUse" x1="332.208" y1="1555.89" x2="1522.58" y2="564.726">
		<stop class="stop0" offset="0" stop-opacity="1" stop-color="rgb(9,96,132)"/>
		<stop class="stop1" offset="1" stop-opacity="1" stop-color="rgb(31,180,171)"/>
	</linearGradient>
</defs>
<path transform="translate(0,0)" fill="url(#Gradient1)" d="M 883.746 116.365 C 887.534 105.616 955.305 11.3138 964.651 2.8704 C 972.424 8.46253 979.064 14.8562 986.413 20.9808 C 1000.35 32.3866 1014.2 43.9088 1027.95 55.5461 L 1143.49 152.524 C 1174.53 178.36 1205.37 204.44 1236 230.761 C 1265.58 255.97 1297.18 274.995 1302.5 317.669 C 1312.22 396.898 1229.89 414.96 1173.77 440.017 C 1162.25 445.159 1149.56 448.864 1138.12 454.049 C 1074.5 482.893 1010.24 521.854 955.644 565.719 C 936.215 581.439 917.127 597.575 898.392 614.115 C 889.194 622.33 880.346 631.349 870.94 639.234 C 843.925 666.659 817.541 692.333 790.836 720.444 C 764.66 747.999 737.936 777.072 711.149 803.683 C 708.598 806.75 704.189 811.254 702.151 814.015 L 702.627 815.165 C 707.169 825.923 714.374 836.236 719.775 846.581 C 770.464 943.682 776.229 1061.3 737.054 1163.49 C 731.062 1179.13 723.124 1193.57 715.178 1208.25 C 712.212 1213.86 705.397 1225.36 703.541 1230.49 C 714.359 1248.14 759.083 1290.12 775.883 1306.43 C 827.785 1356.81 880.267 1415.88 936.604 1461.11 C 959.168 1479.29 982.474 1496.53 1006.46 1512.78 C 1009.79 1515.05 1030.35 1528.03 1031.16 1529.22 C 1050.48 1540.08 1066.81 1550.6 1087.01 1560.63 C 1097.06 1565.63 1127.23 1578.6 1134.18 1583.27 C 1140.05 1584.75 1146.49 1587.9 1152.1 1590.39 C 1159.37 1591.74 1171.84 1596.9 1179.25 1599.62 C 1210.43 1611.05 1238.22 1622.46 1264.98 1642.75 C 1269.45 1646.14 1278.44 1652.55 1281.94 1656.73 C 1314.85 1686.52 1316.91 1744.74 1286.82 1777.12 C 1278.51 1786.07 1268.32 1794.71 1259.18 1802.88 C 1243.66 1816.95 1227.88 1830.75 1211.86 1844.25 C 1197.3 1856.66 1184.15 1869.69 1168.89 1882.16 C 1161.22 1890.99 1126.06 1919.89 1115.61 1928.75 C 1086.28 1953.85 1057.18 1979.22 1028.31 2004.85 C 1020.89 2011.28 987.355 2041.49 980.702 2044.68 C 978.486 2043.76 979.202 2044.1 977.651 2041.77 C 965.591 2024.49 897.699 1944.08 893.932 1931.77 C 896.031 1924.98 940.841 1888.48 948.816 1881.53 L 955.502 1875.09 C 962.461 1868.62 969.592 1862.35 976.888 1856.27 C 979.494 1852.16 1017.62 1819.91 1023.02 1815.35 C 1026.23 1812.02 1031.12 1808.2 1034.74 1805.06 C 1054.15 1788.23 1073.57 1771.41 1092.1 1753.61 C 1099.26 1746.73 1108.15 1739.95 1113.83 1731.87 C 1045.55 1706.02 965.262 1658.37 905.744 1616.1 C 837.251 1567.46 772.865 1503.13 713.344 1443.86 L 647.977 1379.67 C 637.099 1368.77 612.398 1342.63 601.791 1335.25 C 553.542 1366.95 503.188 1389.8 445.88 1399.71 C 434.874 1401.61 424.29 1401.91 413.141 1403.41 C 396.139 1405.5 371.478 1405.03 354.491 1403.27 C 300.658 1398.98 271.712 1390.29 222.644 1369.86 C 182.727 1353.23 133.252 1316.82 105.067 1284.15 C 99.7686 1280.64 87.5023 1265.04 83.2251 1259.45 C 50.8916 1217.19 19.2712 1158.72 10.6409 1105.73 C 10.4763 1105.44 10.3117 1105.15 10.1471 1104.85 C -0.671907 1059.41 0.247621 974.958 12.1656 933.861 C 12.5929 923.995 20.0127 902.983 23.4823 893.382 C 47.4391 827.09 94.2161 759.703 151.896 718.473 C 164.562 705.495 218.061 676.802 235.81 670.752 C 281.251 654.049 341.664 638.722 390.543 642.811 C 429.614 641.768 473.518 653.181 510.296 664.917 C 514.193 666.333 528.316 671.154 530.935 673.353 C 546.912 679.35 557.112 684.982 571.957 693.458 C 576.945 696.307 597.275 710.095 600.034 710.784 C 605.064 709.343 610.49 702.831 614.785 698.862 C 617.099 695.017 642.427 671.049 647.477 665.95 C 708.189 604.665 767.118 539.848 832.368 483.456 C 847.776 470.14 864.894 454.205 881.355 442.791 C 886.247 437.284 904.612 424.868 911.684 420.04 C 968.145 381.501 1036.51 341.339 1099.38 314.796 L 1106.66 310.567 C 1088.66 292.36 1054.66 264.161 1034.43 246.891 L 926.77 153.822 C 912.607 141.394 896.838 129.665 883.746 116.365 z"/>
<path transform="translate(0,0)" fill="rgb(19,143,147)" d="M 1099.38 314.796 C 1093.48 325.579 984.366 373.938 966.45 389.231 C 953.943 399.908 928.955 413.062 915.29 423.999 C 909.717 428.46 914.195 431.295 910.419 435.55 C 906.789 435.966 902.528 435.594 900.516 435.873 C 894.697 436.68 887.527 440.734 881.355 442.791 C 886.247 437.284 904.612 424.868 911.684 420.04 C 968.145 381.501 1036.51 341.339 1099.38 314.796 z"/>
<path transform="translate(0,0)" fill="rgb(8,108,117)" d="M 711.149 803.683 L 711.493 802.485 C 712.562 798.623 720.978 789.685 724.158 786.269 C 770.547 736.436 816.901 685.171 867.07 639.297 C 867.07 639.297 870.602 639.239 870.94 639.234 C 843.925 666.659 817.541 692.333 790.836 720.444 C 764.66 747.999 737.936 777.072 711.149 803.683 z"/>
<path transform="translate(0,0)" fill="rgb(1,18,28)" d="M 1026.28 2001.93 C 1045.39 1984.65 1062.23 1970.52 1081.23 1953.8 C 1106.68 1931.04 1132.53 1908.74 1158.77 1886.9 C 1162.84 1883.58 1164.32 1881.71 1168.89 1882.16 C 1161.22 1890.99 1126.06 1919.89 1115.61 1928.75 C 1086.28 1953.85 1057.18 1979.22 1028.31 2004.85 L 1026.28 2001.93 z"/>
<path transform="translate(0,0)" fill="rgb(5,63,100)" d="M 105.067 1284.15 C 108.27 1283.69 107.834 1283.25 110.479 1285.42 C 127.01 1299.01 135.301 1315.45 155.434 1324.63 C 166.984 1329.89 164.713 1326.21 175.046 1328.23 C 178.109 1328.83 178.365 1341.3 182.576 1342.43 C 191.194 1349.86 220.045 1360.08 222.644 1369.86 C 182.727 1353.23 133.252 1316.82 105.067 1284.15 z"/>
<path transform="translate(0,0)" fill="rgb(8,108,117)" d="M 390.543 642.811 C 429.614 641.768 473.518 653.181 510.296 664.917 C 508.688 664.849 507.005 665.195 505.5 665.176 C 490.744 664.994 473.584 656.868 458.889 654.631 C 428.864 650.059 392.715 648.205 362.356 649.991 C 377.312 643.007 376.395 646.718 390.543 642.811 z"/>
<path transform="translate(0,0)" fill="rgb(8,103,117)" d="M 235.81 670.752 C 281.251 654.049 341.664 638.722 390.543 642.811 C 376.395 646.718 377.312 643.007 362.356 649.991 C 324.763 650.06 297.294 653.391 261.253 665.973 C 254.03 668.494 243.14 671.048 236.938 675.169 L 235.81 670.752 z"/>
<path transform="translate(0,0)" fill="rgb(5,63,100)" d="M 12.1656 933.861 C 12.5415 939.256 11.511 941.409 11.595 945.662 C 11.9815 965.238 7.42412 985.596 6.2378 1004.57 C 4.8185 1027.26 6.62576 1051.68 9.41433 1074.2 C 10.6008 1083.78 10.0814 1095.27 11.2981 1104.69 L 10.6409 1105.73 C 10.4763 1105.44 10.3117 1105.15 10.1471 1104.85 C -0.671907 1059.41 0.247621 974.958 12.1656 933.861 z"/>
<path transform="translate(0,0)" fill="rgb(8,103,117)" d="M 1152.1 1590.39 C 1159.37 1591.74 1171.84 1596.9 1179.25 1599.62 C 1210.43 1611.05 1238.22 1622.46 1264.98 1642.75 C 1269.45 1646.14 1278.44 1652.55 1281.94 1656.73 C 1281.73 1656.68 1281.52 1656.64 1281.31 1656.6 C 1277.18 1655.94 1237.87 1629.48 1229.09 1624.79 C 1214.59 1617.05 1160.23 1599.75 1153.96 1593.76 L 1156.03 1594.48 C 1154.06 1593.1 1152.93 1592.63 1152.1 1590.39 z"/>
<path transform="translate(0,0)" fill="rgb(8,103,117)" d="M 1031.16 1529.22 C 1050.48 1540.08 1066.81 1550.6 1087.01 1560.63 C 1097.06 1565.63 1127.23 1578.6 1134.18 1583.27 C 1120.76 1586.92 1046.57 1545.2 1033.49 1534.08 C 1032.46 1533.21 1031.54 1530.58 1031.16 1529.22 z"/>
<path transform="translate(0,0)" fill="rgb(5,83,109)" d="M 151.896 718.473 C 164.562 705.495 218.061 676.802 235.81 670.752 L 236.938 675.169 C 231.604 679.197 225.992 679.853 220.753 682.46 C 209.077 688.271 181.539 697.78 174.919 708.841 L 175.167 709.388 C 175.987 711.224 176.075 710.864 175.999 712.747 C 172.373 713.426 152.721 718.584 151.896 718.473 z"/>
<path transform="translate(0,0)" fill="rgb(5,83,109)" d="M 1023.02 1815.35 C 1020.77 1824.11 991.887 1843.86 984.975 1851.47 C 979.286 1857.73 981.89 1858.39 973.689 1866.19 C 974.081 1870.61 974.523 1875.02 975.013 1879.43 C 966.494 1878.55 956.856 1877.65 948.816 1881.53 L 955.502 1875.09 C 962.461 1868.62 969.592 1862.35 976.888 1856.27 C 979.494 1852.16 1017.62 1819.91 1023.02 1815.35 z"/>
<path transform="translate(0,0)" fill="rgb(5,83,109)" d="M 1011.5 2013.55 C 1009.88 2010.18 1009.26 2009.19 1008.79 2005.41 C 1011.58 1998.94 1017.86 2006.74 1026.28 2001.93 L 1028.31 2004.85 C 1020.89 2011.28 987.355 2041.49 980.702 2044.68 C 978.486 2043.76 979.202 2044.1 977.651 2041.77 C 986.895 2035.91 1003.98 2021.33 1011.5 2013.55 z"/>
<path transform="translate(0,0)" fill="rgb(8,108,117)" d="M 530.935 673.353 C 546.912 679.35 557.112 684.982 571.957 693.458 C 576.945 696.307 597.275 710.095 600.034 710.784 C 598.076 711.573 595.949 712.372 594.068 713.286 C 585.821 709.194 578.608 701.084 570.456 695.698 C 561.236 689.607 534.813 682.572 530.935 673.353 z"/>
<path transform="translate(0,0)" fill="rgb(1,18,28)" d="M 354.491 1403.27 C 378.567 1402.32 387.973 1400.11 413.141 1403.41 C 396.139 1405.5 371.478 1405.03 354.491 1403.27 z"/>
<path transform="translate(0,0)" fill="rgb(8,103,117)" d="M 600.034 710.784 C 605.064 709.343 610.49 702.831 614.785 698.862 C 610.838 708.804 607.239 718.92 594.068 713.286 C 595.949 712.372 598.076 711.573 600.034 710.784 z"/>
<path transform="translate(0,0)" fill="rgb(19,143,147)" d="M 1160.57 183.069 C 1165.43 183.368 1171.01 184.72 1172.41 189.934 L 1169.72 190.769 C 1165.27 190.77 1161.97 191.288 1158.49 188.982 C 1158.42 185.427 1158.4 186.579 1160.57 183.069 z"/>
<path transform="translate(0,0)" fill="rgb(5,83,109)" d="M 576.309 1327.5 C 580.851 1328.59 584.435 1329.93 588.273 1332.55 L 588.272 1334.46 C 584.2 1335.9 581.529 1336.68 577.549 1334.73 C 575.334 1331.03 575.882 1332.69 576.309 1327.5 z"/>
<path transform="translate(0,0)" fill="rgb(19,143,147)" d="M 823.997 654.495 C 825.925 653.344 828.414 653.876 829.702 655.714 C 830.991 657.553 830.643 660.074 828.903 661.494 C 827.659 662.51 825.952 662.745 824.48 662.102 C 823.007 661.46 822.018 660.049 821.916 658.446 C 821.815 656.843 822.618 655.318 823.997 654.495 z"/>
<path transform="translate(0,0)" fill="rgb(8,108,117)" d="M 1282.19 1755.2 C 1287.11 1756.65 1288.66 1759.33 1289.78 1764.11 C 1286.77 1764.78 1286.61 1764.83 1283.58 1764.46 C 1281.52 1761.67 1282.26 1759.35 1282.19 1755.2 z"/>
<path transform="translate(0,0)" fill="rgb(5,83,109)" d="M 938.794 1902.36 C 942.257 1903.34 941.432 1902.56 943.16 1905 C 942.634 1908.39 942.788 1907.34 940.17 1910.34 C 937.72 1909.68 937.435 1909.52 935.136 1908.38 L 934.934 1906.76 L 938.794 1902.36 z"/>
<path transform="translate(0,0)" fill="rgb(8,103,117)" d="M 764.239 1316.24 C 768.667 1318.94 769.872 1321.07 770.612 1326.17 C 766.712 1326.04 768.18 1326.52 764.995 1324.47 C 763.496 1321.23 763.938 1319.81 764.239 1316.24 z"/>
<path transform="translate(0,0)" fill="rgb(8,103,117)" d="M 704.909 1253.59 C 706.635 1254.78 707.072 1256.14 708.03 1258.02 C 707.834 1262.38 708.411 1260.69 705.59 1264.37 C 703.403 1262.76 703.475 1262.89 702.299 1260.46 C 702.296 1257.03 702.917 1256.6 704.909 1253.59 z"/>
</g></svg></svg><svg x="514" y="104" width="203" height="135" xmlns="http://www.w3.org/2000/svg" style="display:block" preserveAspectRatio="none"><svg version="1.1" xmlns="http://www.w3.org/2000/svg" style="display: block;" width="203" height="135" viewBox="97.73 64.46 1612.09 1072.08" preserveAspectRatio="none"><g id="svg-group-e602f35f-aa09-4a55-91c9-87b184702dd8">
<defs>
	<linearGradient id="Gradient1" gradientUnits="userSpaceOnUse" x1="426.529" y1="713.946" x2="426.471" y2="720.045">
		<stop class="stop0" offset="0" stop-opacity="1" stop-color="rgb(0,5,6)"/>
		<stop class="stop1" offset="1" stop-opacity="1" stop-color="rgb(0,38,46)"/>
	</linearGradient>
	<linearGradient id="Gradient2" gradientUnits="userSpaceOnUse" x1="408.523" y1="1111.72" x2="1702.33" y2="101.636">
		<stop class="stop0" offset="0" stop-opacity="1" stop-color="rgb(14,109,138)"/>
		<stop class="stop1" offset="1" stop-opacity="1" stop-color="rgb(23,163,162)"/>
	</linearGradient>
</defs>
<path transform="translate(0,0)" fill="url(#Gradient2)" d="M 348.343 527.735 C 350.059 525.997 351.863 524.349 353.749 522.797 C 404.484 481.364 454.29 448.434 508.828 412.947 C 561.609 378.354 615.961 346.22 671.711 316.65 C 696.466 303.732 717.353 294.314 742.164 282.417 C 805.846 251.517 870.994 223.733 937.376 199.165 C 1102.14 140.846 1273.1 101.77 1446.84 82.7152 C 1504.51 75.8828 1561.81 72.1637 1619.8 70.4421 C 1646.39 69.6527 1677.8 66.6548 1703.85 69.3577 C 1707.98 69.5205 1707.18 68.8279 1709.45 71.0324 C 1709.82 73.7722 1709.21 75.5585 1707.55 77.7853 C 1704.37 82.0641 1612.96 155.896 1606.64 159.366 C 1548.29 202.783 1487.72 246.774 1447.95 308.948 C 1430.58 336.105 1421.83 367.131 1405.88 393.874 C 1401.41 401.371 1346.89 409.237 1335.88 411.868 C 1291.84 422.399 1247.76 431.801 1203.92 443.162 C 1175.61 450.602 1145.85 462.211 1117.88 470.899 C 1085.81 480.86 1059.6 490.01 1028.39 502.636 C 1023.03 504.449 1019.13 506.161 1014 508.443 C 980.705 521.075 948.171 535.997 915.09 549.205 C 911.635 550.584 907.923 552.054 904.557 553.583 C 890.722 559.45 872.023 567.729 860.115 576.905 C 881.472 573.239 898.787 564.972 919.104 558.43 C 953.956 547.526 988.916 536.971 1023.98 526.766 C 1089.17 508.336 1161.62 497.087 1228.85 486.361 C 1262.57 480.981 1300.04 481.519 1334.17 477.852 C 1347.77 476.871 1389.13 472.911 1400.73 478.174 C 1405.96 480.546 1411.85 510.409 1414.55 518.421 C 1424.49 548.596 1439.04 577.051 1457.68 602.776 C 1504.27 666.582 1554.57 690.863 1612.83 737.557 C 1629.39 748.04 1652.7 764.62 1663.93 780.175 C 1644.4 778.432 1624.13 778.822 1604.46 778.778 C 1410.56 784.793 1206.5 838.223 1032.65 923.831 C 979.822 949.842 923.009 977.706 873.885 1010.18 C 858.326 1020.54 842.826 1030.98 827.385 1041.52 C 818.449 1047.7 807.379 1056 798.366 1061.55 C 790.376 1068.18 779.911 1075.17 771.15 1080.79 C 759.185 1091.43 745.266 1101.7 732.732 1112 C 723.788 1120.76 712.062 1129.93 700.277 1134.35 C 699.899 1064.06 699.884 993.772 700.23 923.486 C 699.584 913.405 700.113 897.758 700.098 887.113 L 699.985 814.44 C 699.954 797.647 699.928 780.855 699.809 764.064 C 699.723 751.95 698.801 739.781 699.755 727.727 C 679.72 723.727 628.541 724.352 604.587 722.911 C 564.719 721.774 525.888 719.99 485.863 719.443 C 464.695 719.2 443.649 719.284 422.492 719.213 C 390.414 719.105 357.202 723.262 325.389 723.058 C 318.571 724.02 312.085 724.566 305.288 725.333 C 293.771 729.17 274.561 729.552 261.81 730.685 C 245.459 731.293 229.492 736.841 216.958 737.308 C 199.507 740.761 168.245 744.319 152.145 748.78 C 147.879 750.469 100.561 760.953 98.524 760.495 L 97.7303 758.744 C 99.7031 752.254 128.236 724.174 134.751 718.078 C 141.885 708.923 188.161 665.014 196.852 658.641 C 203.511 651.188 221.602 635.833 229.828 628.399 C 241.18 618.14 256.329 603.124 267.798 594.159 C 269.609 591.727 282.958 580.144 285.617 577.861 C 305.84 560.311 326.766 543.589 348.343 527.735 z"/>
<path transform="translate(0,0)" fill="rgb(4,103,115)" d="M 348.343 527.735 C 350.059 525.997 351.863 524.349 353.749 522.797 C 404.484 481.364 454.29 448.434 508.828 412.947 C 561.609 378.354 615.961 346.22 671.711 316.65 C 696.466 303.732 717.353 294.314 742.164 282.417 C 805.846 251.517 870.994 223.733 937.376 199.165 C 1102.14 140.846 1273.1 101.77 1446.84 82.7152 C 1504.51 75.8828 1561.81 72.1637 1619.8 70.4421 C 1646.39 69.6527 1677.8 66.6548 1703.85 69.3577 C 1703.05 71.6971 1694.9 79.5303 1692.75 80.408 C 1686.83 77.4313 1640.72 79.5403 1630.85 80.0235 C 1586.21 82.2085 1542.12 77.5162 1498.49 87.9192 C 1487.45 90.5524 1466.87 87.3668 1454.78 89.3948 C 1394.11 98.1315 1333.45 101.104 1274.58 119.115 C 1259.91 123.604 1231.91 124.453 1214.47 128.734 C 1163.84 141.16 1113.59 154.558 1063.1 167.398 C 1044.68 172.082 1025.32 181.093 1007.08 186.86 C 963.505 199.343 921.633 213.169 880.297 231.94 C 872.938 235.283 862.515 238.012 854.88 241.206 C 839.085 252.014 821.808 255.928 804.289 263.512 C 737.815 292.448 672.926 324.897 609.896 360.721 C 599.607 366.568 592.811 372.956 583.772 378.5 L 478.388 443.145 C 469.112 448.875 460.375 455.526 451.358 461.645 C 440.597 468.945 430.082 476.566 419.747 484.454 C 413.301 489.373 408.177 495.882 401.654 500.711 C 395.726 505.266 376.881 514.092 370.192 519.852 C 369.734 519.721 369.277 519.591 368.819 519.46 L 367.092 515.471 C 363.3 516.229 355.18 527.18 348.343 527.735 z"/>
<path transform="translate(0,0)" fill="url(#Gradient1)" d="M 304.907 717.981 C 325.512 713.403 360.791 713.675 383.135 713.383 C 426.168 712.995 469.204 712.911 512.238 713.13 C 521.756 714.22 534.421 713.69 543.577 717.433 C 540.709 719.383 493.11 719.157 485.863 719.443 C 464.695 719.2 443.649 719.284 422.492 719.213 C 390.414 719.105 357.202 723.262 325.389 723.058 C 318.571 724.02 312.085 724.566 305.288 725.333 C 307.126 723.062 314.055 722.538 318.249 721.253 C 314.467 717.613 310.298 718.207 304.907 717.981 z"/>
<path transform="translate(0,0)" fill="rgb(3,71,85)" d="M 318.249 721.253 C 322.321 721.18 326.392 721.065 330.461 720.906 L 330.832 721.394 C 329.022 721.945 327.19 722.487 325.389 723.058 C 318.571 724.02 312.085 724.566 305.288 725.333 C 307.126 723.062 314.055 722.538 318.249 721.253 z"/>
<path transform="translate(0,0)" fill="rgb(4,103,115)" d="M 1703.85 69.3577 C 1707.98 69.5205 1707.18 68.8279 1709.45 71.0324 C 1709.82 73.7722 1709.21 75.5585 1707.55 77.7853 C 1704.37 82.0641 1612.96 155.896 1606.64 159.366 L 1605.96 157.862 C 1610.91 153.265 1630.24 138.825 1631.42 136.272 L 1629.46 135.805 C 1623.69 138.393 1617.91 145.083 1611.73 149.101 L 1610.03 148.466 L 1678.13 94.2433 C 1683.52 89.9842 1686.61 84.8966 1692.75 80.408 C 1694.9 79.5303 1703.05 71.6971 1703.85 69.3577 z"/>
<path transform="translate(0,0)" fill="rgb(3,71,85)" d="M 1012.1 502.183 C 1012.96 504.595 1013.45 505.951 1014 508.443 C 980.705 521.075 948.171 535.997 915.09 549.205 C 911.635 550.584 907.923 552.054 904.557 553.583 C 903.272 552.074 902.429 551.178 901.419 549.433 L 901.891 548.687 C 910.551 545.551 917.93 540.094 925.459 537.189 C 953.966 526.187 984.001 514.266 1012.1 502.183 z"/>
<path transform="translate(0,0)" fill="rgb(3,71,85)" d="M 512.238 713.13 C 521.228 712.282 530.36 712.767 539.39 712.685 C 552.329 712.569 565.321 712.931 578.26 712.963 C 586.904 712.984 595.581 714.448 604.165 712.953 C 604.811 712.823 604.839 712.889 605.563 712.964 L 607.382 714.978 C 602.758 717.773 600.56 712.075 595.52 720.805 L 596.422 720.885 C 600.232 721.245 601.024 721.481 604.587 722.911 C 564.719 721.774 525.888 719.99 485.863 719.443 C 493.11 719.157 540.709 719.383 543.577 717.433 C 534.421 713.69 521.756 714.22 512.238 713.13 z"/>
<path transform="translate(0,0)" fill="rgb(3,71,85)" d="M 152.145 748.78 C 147.879 750.469 100.561 760.953 98.524 760.495 L 97.7303 758.744 C 99.7031 752.254 128.236 724.174 134.751 718.078 C 133.813 724.166 107.652 744.49 130.676 751.995 C 134.992 751.072 148.767 747.579 152.145 748.78 z"/>
<path transform="translate(0,0)" fill="rgb(0,21,34)" d="M 255.907 723.063 C 271.913 721.823 289.77 718.732 304.907 717.981 C 310.298 718.207 314.467 717.613 318.249 721.253 C 314.055 722.538 307.126 723.062 305.288 725.333 C 293.771 729.17 274.561 729.552 261.81 730.685 C 257.772 728.759 257.088 729.25 255.111 726.044 L 255.907 723.063 z"/>
<path transform="translate(0,0)" fill="rgb(3,71,85)" d="M 725.911 1107.78 C 734.131 1102.88 742.591 1094.29 750.156 1088.01 C 758.244 1081.3 764.631 1076.94 773.483 1071.14 C 772.944 1073.18 771.269 1079.05 771.15 1080.79 C 759.185 1091.43 745.266 1101.7 732.732 1112 C 728.128 1111.45 728.352 1111.27 725.911 1107.78 z"/>
<path transform="translate(0,0)" fill="rgb(3,71,85)" d="M 700.23 923.486 L 700.338 924.673 C 701.495 938.133 700.819 963.22 700.836 977.395 L 701.045 1079.36 C 701.082 1086.36 701.157 1120.04 702.778 1125.35 C 704.167 1126.51 706.056 1127.85 706.878 1129.39 C 712.897 1127.31 725.216 1120.07 719.118 1112.45 L 712.691 1112.21 C 716.694 1110.08 720.549 1110.33 725.911 1107.78 C 728.352 1111.27 728.128 1111.45 732.732 1112 C 723.788 1120.76 712.062 1129.93 700.277 1134.35 C 699.899 1064.06 699.884 993.772 700.23 923.486 z"/>
<path transform="translate(0,0)" fill="rgb(3,71,85)" d="M 1612.83 737.557 C 1629.39 748.04 1652.7 764.62 1663.93 780.175 C 1644.4 778.432 1624.13 778.822 1604.46 778.778 C 1611.05 777.558 1637.24 777.6 1646.48 776.98 L 1645.94 775.435 L 1642.19 773.747 C 1640.52 767.035 1634.65 762.544 1629.68 757.461 C 1636.19 761.467 1642.03 767.679 1649.46 772.546 C 1648.9 763.065 1647.54 767.354 1642.71 762.376 C 1633.98 753.385 1621.07 747.247 1612.17 738.882 L 1612.83 737.557 z"/>
<path transform="translate(0,0)" fill="rgb(3,71,85)" d="M 196.852 658.641 C 203.511 651.188 221.602 635.833 229.828 628.399 C 241.18 618.14 256.329 603.124 267.798 594.159 C 263.274 603.157 253.025 607.83 250.851 611.711 C 239.814 631.413 244.972 625.984 226.174 634.468 C 218.461 637.95 208.342 655.054 196.852 658.641 z"/>
<path transform="translate(0,0)" fill="rgb(3,71,85)" d="M 216.958 737.308 C 224.256 732.252 227.989 734.179 235.898 732.639 L 236.368 731.157 C 234.275 729.592 231.417 729.849 228.636 729.71 C 233.172 726.008 250.05 722.456 255.907 723.063 L 255.111 726.044 C 257.088 729.25 257.772 728.759 261.81 730.685 C 245.459 731.293 229.492 736.841 216.958 737.308 z"/>
<path transform="translate(0,0)" fill="rgb(3,71,85)" d="M 773.483 1071.14 C 776.836 1067.67 793.186 1054.82 798.046 1057.91 L 798.366 1061.55 C 790.376 1068.18 779.911 1075.17 771.15 1080.79 C 771.269 1079.05 772.944 1073.18 773.483 1071.14 z"/>
<path transform="translate(0,0)" fill="rgb(4,103,115)" d="M 1012.1 502.183 C 1016.27 500.296 1025.11 495.635 1028.85 498.565 L 1028.39 502.636 C 1023.03 504.449 1019.13 506.161 1014 508.443 C 1013.45 505.951 1012.96 504.595 1012.1 502.183 z"/>
<path transform="translate(0,0)" fill="rgb(4,103,115)" d="M 783.004 1025.04 C 789.272 1024.69 803.77 1024.88 807.424 1030.7 C 807.542 1034.67 807.746 1033.31 804.366 1036.95 C 795.893 1039.92 780.016 1037.99 783.004 1025.04 z"/>
<path transform="translate(0,0)" fill="rgb(7,130,138)" d="M 1491.78 683.151 C 1496.55 684.121 1510.24 688.856 1512.03 693.483 L 1510.54 695.754 C 1503.75 696.571 1494.47 699.451 1490.2 693.689 C 1489.42 690.001 1490.73 686.807 1491.78 683.151 z"/>
<path transform="translate(0,0)" fill="rgb(69,180,191)" d="M 860.113 574.887 C 861.225 575.231 860.697 574.941 861.477 576.151 C 859.425 580.479 844.132 586.312 839.225 588.496 L 837.507 587.765 L 837.321 586.11 C 840.902 581.512 854.311 577.145 860.113 574.887 z"/>
</g></svg></svg><svg x="701" y="72" width="109" height="161" xmlns="http://www.w3.org/2000/svg" style="display:block" preserveAspectRatio="none"><svg version="1.1" xmlns="http://www.w3.org/2000/svg" style="display: block;" width="109" height="161" viewBox="167.27 244.37 865.33 1278.15" preserveAspectRatio="none"><g id="svg-group-b3c83911-0eb0-4f45-bc17-31c1c9e2bb8e">
<defs>
	<linearGradient id="Gradient1" gradientUnits="userSpaceOnUse" x1="805.499" y1="669.649" x2="812.389" y2="675.26">
		<stop class="stop0" offset="0" stop-opacity="1" stop-color="rgba(0, 35, 43, 1)"/>
		<stop class="stop1" offset="1" stop-opacity="1" stop-color="rgba(0, 31, 52, 1)"/>
	</linearGradient>
	<linearGradient id="Gradient2" gradientUnits="userSpaceOnUse" x1="464.767" y1="1230.37" x2="1137.47" y2="518.033">
		<stop class="stop0" offset="0" stop-opacity="1" stop-color="rgba(11, 58, 121, 1)"/>
		<stop class="stop1" offset="1" stop-opacity="1" stop-color="rgba(18, 128, 148, 1)"/>
	</linearGradient>
</defs>
<path transform="translate(0,0)" fill="url(#Gradient2)" d="M 842.012 265.883 C 847.45 259.162 862.865 244.37 871.351 251.974 C 874.756 255.427 878.785 260.755 881.345 264.94 C 885.288 270.739 888.208 275.462 891.719 281.531 C 895.102 286.142 898.512 290.601 901.388 295.551 L 907.65 305.848 C 911.802 311.444 931.639 339.027 934.201 344.245 C 953.432 371.648 972.935 397.731 990.45 426.409 C 999.883 441.854 1012.73 457.341 1021.16 473.294 C 1027.48 483.184 1030.44 488.037 1024.57 499.141 C 1011.38 511.291 995.527 523.226 981.912 535.341 C 977.951 538.865 961.267 553.935 958.202 556.008 C 950.406 562.649 943.316 568.509 934.706 574.116 C 926.8 581.354 908.829 598.669 901.277 603.567 C 896.726 607.634 891.778 611.175 886.993 614.954 C 868.963 629.197 852.74 645.666 834.061 659.108 C 820.956 669.335 809.508 678.483 797.032 689.431 C 786.903 697.683 770.851 713.423 761.092 719.749 C 756.214 725.258 740.514 736.399 734.117 742.297 C 730.674 745.471 718.901 756.786 716.136 758.704 C 712.694 762.347 705.556 768.48 701.187 770.995 C 698.411 774.278 643.493 820.446 638.955 823.338 C 624.051 836.433 609.737 849.903 595.005 863.15 C 586.225 871.045 575.74 877.981 566.562 885.584 L 568.318 892.062 C 579.017 902.691 590.367 910.213 601.989 919.588 L 657.5 964.885 L 908.453 1174.03 C 942.943 1202.98 978.267 1230.39 1012.41 1259.63 C 1015.8 1262.53 1030.01 1275.44 1030.04 1279.8 C 1030.05 1281.84 1029.7 1283.15 1028.91 1285.03 C 1026.14 1291.79 990.611 1353.01 986.416 1357.07 C 976.827 1375.29 949.865 1411.93 937.471 1429.8 C 932.157 1441.19 885.401 1515.91 876.163 1521.04 C 866.61 1522.52 858.504 1513.74 852.753 1507.12 C 836.201 1494.08 819.947 1482.31 803.823 1468.63 C 739.769 1417.97 676.269 1361.86 613.163 1309.87 C 608.32 1307.12 588.816 1289.81 583.686 1285.36 C 577.575 1281.01 569.314 1274.03 563.226 1269.21 C 552.076 1260.49 541.102 1251.53 530.312 1242.37 C 524.994 1239.24 514.393 1230.36 509.171 1226.21 C 496.328 1216.08 483.572 1205.84 470.904 1195.5 C 457.721 1184.74 444.037 1175.3 430.764 1164.47 C 416.151 1154.96 380.985 1128.89 367.611 1117.35 C 350.119 1105.53 332.464 1091.06 315.176 1078.65 C 311.107 1075.72 294.127 1063.37 291.875 1060.83 C 287.547 1058.67 267.077 1042.35 261.983 1038.4 C 250.557 1033.09 216.55 998.175 208.045 987.972 C 204.593 983.746 200.335 977.562 197.026 973.031 C 173.028 928.146 169.433 886.013 182.958 836.788 C 183.668 831.921 187.329 824.977 189.739 820.517 C 219.971 763.745 276.582 731.33 324.145 691.374 C 373.017 650.319 427.047 614.138 475.864 573.626 L 741.244 350.132 C 760.447 334.247 779.502 318.184 798.406 301.944 C 811.869 290.387 827.626 276.104 842.012 265.883 z"/>
<path transform="translate(0,0)" fill="rgba(1, 10, 24, 1)" d="M 1007.34 1267.08 C 986.981 1247.93 967.045 1232.68 945.544 1214.95 C 937.843 1208.6 928.54 1202.89 921.043 1196.31 C 912.275 1188.62 904.246 1180.13 895.325 1172.5 C 832.13 1118.49 768.231 1065.3 703.645 1012.95 C 688.154 1000.45 668.254 984.591 653.277 971.899 C 639.909 960.569 565.889 906.568 565.818 893.801 L 568.318 892.062 C 579.017 902.691 590.367 910.213 601.989 919.588 L 657.5 964.885 L 908.453 1174.03 C 942.943 1202.98 978.267 1230.39 1012.41 1259.63 C 1015.8 1262.53 1030.01 1275.44 1030.04 1279.8 C 1030.05 1281.84 1029.7 1283.15 1028.91 1285.03 L 1025.6 1283.93 C 1020.33 1276.14 1016.23 1270 1007.34 1267.08 z"/>
<path transform="translate(0,0)" fill="rgba(8, 92, 114, 1)" d="M 923.99 340.41 C 925.844 341.163 926.966 341.865 928.924 341.563 C 930.918 342.755 932.1 343.133 932.94 345.264 L 934.201 344.245 C 953.432 371.648 972.935 397.731 990.45 426.409 C 999.883 441.854 1012.73 457.341 1021.16 473.294 C 1020 475.969 1019.57 477.119 1016.5 478.241 C 1009.74 454.574 984.958 434.605 969.331 417.239 C 964.401 411.761 963.963 395.369 959.141 389.059 C 946.469 372.476 935.061 358.262 923.99 340.41 z"/>
<path transform="translate(0,0)" fill="rgba(0, 9, 37, 1)" d="M 284.206 1046.12 C 312.684 1066.6 341.621 1086.27 368.575 1108.81 C 371.975 1111.65 375.384 1114.26 379.025 1116.8 C 376.915 1119.67 378.02 1118.95 374.963 1119.87 C 373.055 1119.17 369.46 1117.48 367.611 1117.35 C 350.119 1105.53 332.464 1091.06 315.176 1078.65 C 311.107 1075.72 294.127 1063.37 291.875 1060.83 C 289.699 1056.48 285.923 1055.5 282.364 1050.47 C 282.386 1047.33 281.922 1048.5 284.206 1046.12 z"/>
<path transform="translate(0,0)" fill="rgba(0, 22, 64, 1)" d="M 874.895 1509.76 C 881.728 1502.91 895.934 1475.96 902.317 1465.66 C 910.436 1452.56 924.596 1434.97 930.82 1422.89 L 931.721 1422.75 C 929.13 1432.58 913.774 1448.46 912.436 1454.51 C 913.807 1453.24 914.623 1453.1 916.366 1452.5 C 918.666 1454.28 917.93 1453.87 918.571 1457.74 C 920.945 1456.01 922.061 1450 923.188 1447.23 C 924.519 1443.96 927.455 1443.62 929.802 1440.12 L 929.424 1438.58 C 932.14 1436.28 934.199 1432.31 936.113 1429.14 L 937.471 1429.8 C 932.157 1441.19 885.401 1515.91 876.163 1521.04 L 881.164 1512.95 C 878.846 1513.94 879.066 1514.16 876.584 1513.8 C 877.23 1511.25 878.186 1510.12 879.627 1507.92 L 878.058 1507.97 L 879.191 1508.14 C 876.918 1508.31 876.637 1508.22 874.895 1509.76 z"/>
<path transform="translate(0,0)" fill="rgba(1, 10, 24, 1)" d="M 701.97 760.277 L 702.569 761.088 C 703.401 762.206 703.99 762.814 704.947 763.817 C 704.092 768.039 703.013 767.49 701.187 770.995 C 698.411 774.278 643.493 820.446 638.955 823.338 C 633.743 825.022 630.367 829.009 626.25 824.682 C 652.045 801.737 674.596 781.44 701.97 760.277 z"/>
<path transform="translate(0,0)" fill="rgba(0, 9, 37, 1)" d="M 626.25 824.682 C 630.367 829.009 633.743 825.022 638.955 823.338 C 624.051 836.433 609.737 849.903 595.005 863.15 C 586.225 871.045 575.74 877.981 566.562 885.584 L 564.572 886.412 L 563.366 885.711 C 564.026 876.274 578.916 866.285 585.561 860.08 C 598.686 847.823 612.223 835.89 626.25 824.682 z"/>
<path transform="translate(0,0)" fill="rgba(1, 10, 24, 1)" d="M 898.652 596.104 L 902.021 596.725 C 903.666 600.085 901.682 599.651 901.277 603.567 C 896.726 607.634 891.778 611.175 886.993 614.954 C 868.963 629.197 852.74 645.666 834.061 659.108 C 829.564 658.694 827.62 659.408 825.072 656.827 C 835.584 650.08 847.823 638.148 857.75 629.964 C 871.248 618.835 885.594 607.658 898.652 596.104 z"/>
<path transform="translate(0,0)" fill="rgba(8, 92, 114, 1)" d="M 905.993 588.549 C 901.294 584.318 891.584 576.539 896.807 570.306 C 903.922 567.445 917.182 571.448 926.439 571.919 L 929.135 570.494 L 934.706 574.116 C 926.8 581.354 908.829 598.669 901.277 603.567 C 901.682 599.651 903.666 600.085 902.021 596.725 L 898.652 596.104 C 899.713 594.497 904.342 590.16 905.993 588.549 z"/>
<path transform="translate(0,0)" fill="rgba(0, 68, 88, 1)" d="M 926.439 571.919 L 929.135 570.494 L 934.706 574.116 C 926.8 581.354 908.829 598.669 901.277 603.567 C 901.682 599.651 903.666 600.085 902.021 596.725 L 898.652 596.104 C 899.713 594.497 904.342 590.16 905.993 588.549 C 911.79 585.715 922.124 576.519 926.439 571.919 z"/>
<path transform="translate(0,0)" fill="rgba(1, 10, 24, 1)" d="M 768.764 703.221 C 771.992 708.998 764.408 714.347 761.092 719.749 C 756.214 725.258 740.514 736.399 734.117 742.297 C 730.674 745.471 718.901 756.786 716.136 758.704 C 712.694 762.347 705.556 768.48 701.187 770.995 C 703.013 767.49 704.092 768.039 704.947 763.817 C 703.99 762.814 703.401 762.206 702.569 761.088 L 701.97 760.277 C 706.348 756.411 710.748 752.569 715.168 748.752 C 727.921 736.216 753.734 716.437 768.764 703.221 z"/>
<path transform="translate(0,0)" fill="rgba(0, 9, 37, 1)" d="M 715.168 748.752 C 717.551 747.822 719.526 747.093 721.969 746.336 L 722.295 746.981 C 719.267 750.669 716.233 753.761 716.136 758.704 C 712.694 762.347 705.556 768.48 701.187 770.995 C 703.013 767.49 704.092 768.039 704.947 763.817 C 703.99 762.814 703.401 762.206 702.569 761.088 L 701.97 760.277 C 706.348 756.411 710.748 752.569 715.168 748.752 z"/>
<path transform="translate(0,0)" fill="rgba(2, 55, 102, 1)" d="M 182.958 836.788 C 184.397 840.456 179.572 864.381 178.315 870.826 C 176.375 880.778 176.529 933.435 185.667 937.652 C 186.033 927.644 183.308 918.01 183.61 909.587 C 184.253 891.698 184.898 869.452 188.236 851.999 L 188.776 853.204 L 187.695 854.671 L 188.594 852.365 C 190.041 862.656 187.234 869.845 186.506 879.496 C 183.972 913.065 185.143 945.376 205.939 973.658 C 202.2 974.169 200.489 974.715 197.026 973.031 C 173.028 928.146 169.433 886.013 182.958 836.788 z"/>
<path transform="translate(0,0)" fill="rgba(0, 68, 88, 1)" d="M 1020.68 492.801 L 1023.53 493.542 C 1024.48 496.099 1024.44 496.375 1024.57 499.141 C 1011.38 511.291 995.527 523.226 981.912 535.341 C 977.951 538.865 961.267 553.935 958.202 556.008 C 958.059 550.739 963.189 548.777 966.863 543.864 C 963.999 543.303 961.952 544.672 959.195 545.695 C 965.286 539.696 974.445 533.505 980.693 527.622 C 994.136 514.964 1006.11 504.173 1020.68 492.801 z"/>
<path transform="translate(0,0)" fill="rgba(0, 22, 64, 1)" d="M 379.025 1116.8 C 386.581 1121.84 421.616 1148.33 427.159 1154.07 L 427.239 1155.44 L 423.234 1156.73 C 426.158 1159.05 429.75 1161.24 430.764 1164.47 C 416.151 1154.96 380.985 1128.89 367.611 1117.35 C 369.46 1117.48 373.055 1119.17 374.963 1119.87 C 378.02 1118.95 376.915 1119.67 379.025 1116.8 z"/>
<path transform="translate(0,0)" fill="rgba(0, 22, 64, 1)" d="M 803.823 1468.63 L 804.343 1461.36 C 807.839 1461.67 844.064 1489.95 846.406 1493.36 C 846.643 1494.2 852.201 1506.24 852.753 1507.12 C 836.201 1494.08 819.947 1482.31 803.823 1468.63 z"/>
<path transform="translate(0,0)" fill="rgba(0, 22, 64, 1)" d="M 1007.34 1267.08 C 1016.23 1270 1020.33 1276.14 1025.6 1283.93 L 1028.91 1285.03 C 1026.14 1291.79 990.611 1353.01 986.416 1357.07 C 987.757 1348.83 1017.16 1305.35 1021.6 1294.89 C 1019.07 1294.84 1019.99 1295.02 1017.62 1292.86 C 1009.56 1298.29 994.886 1331.56 988.142 1337.83 L 987.515 1337.71 C 1000.3 1315.84 1007.9 1302.86 1022.29 1282.09 C 1017.26 1277.13 1012.27 1272.13 1007.34 1267.08 z"/>
<path transform="translate(0,0)" fill="url(#Gradient1)" d="M 825.072 656.827 C 827.62 659.408 829.564 658.694 834.061 659.108 C 820.956 669.335 809.508 678.483 797.032 689.431 C 793.028 688.892 792.514 689.099 790.842 685.636 C 801.687 675.869 813.299 665.325 825.072 656.827 z"/>
<path transform="translate(0,0)" fill="rgba(0, 9, 37, 1)" d="M 846.406 1493.36 C 850.265 1495.68 854.546 1498.86 857.541 1502.21 C 862.237 1505.74 864.986 1507.98 869.231 1512.02 C 871.094 1511.4 873.067 1510.52 874.895 1509.76 C 876.637 1508.22 876.918 1508.31 879.191 1508.14 L 878.058 1507.97 L 879.627 1507.92 C 878.186 1510.12 877.23 1511.25 876.584 1513.8 C 879.066 1514.16 878.846 1513.94 881.164 1512.95 L 876.163 1521.04 C 866.61 1522.52 858.504 1513.74 852.753 1507.12 C 852.201 1506.24 846.643 1494.2 846.406 1493.36 z"/>
<path transform="translate(0,0)" fill="rgba(1, 10, 24, 1)" d="M 857.541 1502.21 C 862.237 1505.74 864.986 1507.98 869.231 1512.02 C 873.151 1512.63 874.586 1513.41 876.265 1517.06 L 875.071 1518.59 L 872.198 1518.75 C 866.511 1516.76 856.646 1509.07 857.541 1502.21 z"/>
<path transform="translate(0,0)" fill="rgba(0, 22, 64, 1)" d="M 530.312 1242.37 C 538.873 1242.82 542.719 1255.6 549.374 1252.45 L 549.373 1252.52 C 548.163 1250.03 535.502 1240.66 531.778 1235.95 C 547.608 1246.91 560.328 1255.92 574.869 1268.52 C 571.632 1268.49 566.016 1268.13 563.226 1269.21 C 552.076 1260.49 541.102 1251.53 530.312 1242.37 z"/>
<path transform="translate(0,0)" fill="rgba(0, 22, 64, 1)" d="M 591.247 1281.37 C 596.453 1285.79 613.564 1299.85 616.665 1304.23 C 614.505 1305.75 614.576 1305.24 611.399 1305.38 L 613.512 1308.5 L 613.163 1309.87 C 608.32 1307.12 588.816 1289.81 583.686 1285.36 C 587.735 1284.38 588.16 1284.17 591.247 1281.37 z"/>
<path transform="translate(0,0)" fill="rgba(0, 60, 74, 1)" d="M 959.195 545.695 C 961.952 544.672 963.999 543.303 966.863 543.864 C 963.189 548.777 958.059 550.739 958.202 556.008 C 950.406 562.649 943.316 568.509 934.706 574.116 L 929.135 570.494 C 939.286 562.453 948.947 553.558 959.195 545.695 z"/>
<path transform="translate(0,0)" fill="rgba(2, 55, 102, 1)" d="M 768.764 703.221 C 770.787 700.776 787.286 688.344 790.842 685.636 C 792.514 689.099 793.028 688.892 797.032 689.431 C 786.903 697.683 770.851 713.423 761.092 719.749 C 764.408 714.347 771.992 708.998 768.764 703.221 z"/>
<path transform="translate(0,0)" fill="rgba(0, 60, 74, 1)" d="M 907.65 305.848 C 911.802 311.444 931.639 339.027 934.201 344.245 L 932.94 345.264 C 932.1 343.133 930.918 342.755 928.924 341.563 C 926.966 341.865 925.844 341.163 923.99 340.41 C 922.873 337.324 909.497 318.388 906.667 314.1 L 907.453 312.19 C 906.664 309.161 906.599 308.78 907.65 305.848 z"/>
<path transform="translate(0,0)" fill="rgba(0, 68, 88, 1)" d="M 842.012 265.883 C 847.45 259.162 862.865 244.37 871.351 251.974 C 874.756 255.427 878.785 260.755 881.345 264.94 C 877.235 263.821 876.501 263.585 872.148 263.718 L 872.06 263.284 C 868.486 259.607 869.715 259.878 865.226 258.597 C 861.478 259.242 857.152 262.623 853.855 264.841 C 856.239 262.179 858.244 259.835 860.471 257.042 L 859.922 256.212 C 851.529 257.883 847.148 265.19 842.012 265.883 z"/>
<path transform="translate(0,0)" fill="rgba(0, 60, 74, 1)" d="M 871.351 251.974 C 874.756 255.427 878.785 260.755 881.345 264.94 C 877.235 263.821 876.501 263.585 872.148 263.718 L 872.06 263.284 C 871.848 258.315 869.546 257.574 871.351 251.974 z"/>
<path transform="translate(0,0)" fill="rgba(0, 68, 88, 1)" d="M 891.719 281.531 C 895.102 286.142 898.512 290.601 901.388 295.551 L 907.65 305.848 C 906.599 308.78 906.664 309.161 907.453 312.19 L 906.667 314.1 C 902.641 308.765 894.332 298.056 891.716 292.422 L 891.424 291.7 C 890.613 286.93 889.682 286.274 891.719 281.531 z"/>
<path transform="translate(0,0)" fill="rgba(0, 60, 74, 1)" d="M 891.719 281.531 C 895.102 286.142 898.512 290.601 901.388 295.551 C 896.337 296.18 895.811 295.211 891.716 292.422 L 891.424 291.7 C 890.613 286.93 889.682 286.274 891.719 281.531 z"/>
<path transform="translate(0,0)" fill="rgba(0, 22, 64, 1)" d="M 574.869 1268.52 L 591.247 1281.37 C 588.16 1284.17 587.735 1284.38 583.686 1285.36 C 577.575 1281.01 569.314 1274.03 563.226 1269.21 C 566.016 1268.13 571.632 1268.49 574.869 1268.52 z"/>
<path transform="translate(0,0)" fill="rgba(0, 22, 64, 1)" d="M 261.983 1038.4 L 265.477 1038.5 L 266.945 1036.79 C 265.69 1033.9 265.048 1033.58 262.658 1031.37 C 266.518 1032.67 279.98 1043.1 284.206 1046.12 C 281.922 1048.5 282.386 1047.33 282.364 1050.47 C 285.923 1055.5 289.699 1056.48 291.875 1060.83 C 287.547 1058.67 267.077 1042.35 261.983 1038.4 z"/>
<path transform="translate(0,0)" fill="rgba(0, 68, 88, 1)" d="M 872.148 263.718 C 876.501 263.585 877.235 263.821 881.345 264.94 C 885.288 270.739 888.208 275.462 891.719 281.531 C 889.682 286.274 890.613 286.93 891.424 291.7 C 885.334 284.059 877.966 272.203 872.148 263.718 z"/>
<path transform="translate(0,0)" fill="rgba(21, 109, 122, 1)" d="M 1021.16 473.294 C 1027.48 483.184 1030.44 488.037 1024.57 499.141 C 1024.44 496.375 1024.48 496.099 1023.53 493.542 L 1020.68 492.801 C 1022.33 486.838 1019.4 483.324 1016.5 478.241 C 1019.57 477.119 1020 475.969 1021.16 473.294 z"/>
<path transform="translate(0,0)" fill="rgba(2, 55, 102, 1)" d="M 197.026 973.031 C 200.489 974.715 202.2 974.169 205.939 973.658 C 208.373 977.497 208.04 983.384 208.045 987.972 C 204.593 983.746 200.335 977.562 197.026 973.031 z"/>
<path transform="translate(0,0)" fill="rgba(2, 55, 102, 1)" d="M 638.545 760.678 C 646.522 760.436 658.463 764.821 663.337 771.323 L 662.515 773.674 C 657.511 776.618 640.413 777.993 638.082 771.134 C 637.199 768.537 638.135 763.329 638.545 760.678 z"/>
<path transform="translate(0,0)" fill="rgba(2, 55, 102, 1)" d="M 642.013 997.404 C 642.856 997.423 650.541 999.525 651.481 999.927 C 656.256 1001.97 665.96 1001.08 669.196 1003.56 C 668.502 1006.92 667.573 1006.97 664.907 1009.8 L 663.893 1010.11 C 657.583 1012.14 643.167 1010.91 639.423 1004.34 C 639.384 1000.04 639.285 1001.41 642.013 997.404 z"/>
<path transform="translate(0,0)" fill="rgba(8, 92, 114, 1)" d="M 694.118 422.613 C 696.247 422.981 696.587 422.702 698.111 423.951 C 700.215 425.708 701.525 428.238 701.745 430.97 C 702.334 438.948 697.821 438.97 692.307 439.525 L 687.379 438.909 C 684.896 437.048 685.634 438.094 684.887 434.741 C 685.958 430.116 690.616 425.703 694.118 422.613 z"/>
</g></svg></svg></svg>